<svg width="14" height="14" viewBox="0 0 14 14" fill="none" xmlns="http://www.w3.org/2000/svg">
<path d="M10.423 10.5483C10.8595 10.5483 11.2918 10.4745 11.6952 10.3313C12.0985 10.188 12.465 9.97802 12.7737 9.7133C13.0824 9.44858 13.3272 9.1343 13.4943 8.78843C13.6614 8.44255 13.7474 8.07184 13.7474 7.69747C13.7474 7.32309 13.6614 6.95239 13.4943 6.60651C13.3272 6.26063 13.0824 5.94636 12.7737 5.68164C12.465 5.41692 12.0985 5.20693 11.6952 5.06366C11.2918 4.92039 10.8595 4.84666 10.423 4.84666C9.84248 4.84654 9.27222 4.97765 8.76965 5.22676H8.67656C9.1387 4.99239 9.52166 4.65882 9.78771 4.2589C10.0538 3.85899 10.1937 3.40653 10.1938 2.94611C10.1938 2.59752 10.1137 2.25234 9.95818 1.93029C9.80262 1.60823 9.57462 1.3156 9.28718 1.06911C8.99974 0.822615 8.6585 0.627087 8.28294 0.493687C7.90739 0.360286 7.50487 0.291626 7.09837 0.291626C6.69187 0.291626 6.28935 0.360286 5.9138 0.493687C5.53824 0.627087 5.197 0.822615 4.90956 1.06911C4.62212 1.3156 4.39411 1.60823 4.23855 1.93029C4.08299 2.25234 4.00293 2.59752 4.00293 2.94611C4.00301 3.40653 4.14298 3.85899 4.40903 4.2589C4.67508 4.65882 5.05804 4.99239 5.52018 5.22676H5.42798C4.9404 4.98616 4.37703 4.84666 3.77421 4.84666C2.89253 4.84666 2.04696 5.14701 1.42352 5.68164C0.800075 6.21627 0.449829 6.94139 0.449829 7.69747C0.449829 8.45355 0.800075 9.17867 1.42352 9.7133C2.04696 10.2479 2.89253 10.5483 3.77421 10.5483C4.22798 10.5483 4.67693 10.4685 5.09323 10.3137C5.50953 10.1588 5.88432 9.93232 6.19436 9.64819C6.01218 11.2146 4.0867 12.4488 2.22283 12.4488H2.44446C2.26812 12.4488 2.09901 12.5089 1.97432 12.6158C1.84963 12.7227 1.77958 12.8678 1.77958 13.019C1.77958 13.1702 1.84963 13.3152 1.97432 13.4222C2.09901 13.5291 2.26812 13.5892 2.44446 13.5892H11.7527C11.9291 13.5892 12.0982 13.5291 12.2229 13.4222C12.3476 13.3152 12.4176 13.1702 12.4176 13.019C12.4176 12.8678 12.3476 12.7227 12.2229 12.6158C12.0982 12.5089 11.9291 12.4488 11.7527 12.4488H11.9744C10.1105 12.4488 8.185 11.2142 8.00327 9.6478C8.31312 9.93207 8.68779 10.1587 9.10404 10.3136C9.52029 10.4685 9.96922 10.5484 10.423 10.5483Z" fill="#495057"/>
</svg>
