<svg width="5" height="18" viewBox="0 0 5 18" fill="none" xmlns="http://www.w3.org/2000/svg">
<path d="M2.09161 6.90839C0.941226 6.90839 0 7.84961 0 9C0 10.1504 0.941226 11.0916 2.09161 11.0916C3.242 11.0916 4.18323 10.1504 4.18323 9C4.18323 7.84961 3.242 6.90839 2.09161 6.90839ZM2.09161 0.633545C0.941226 0.633545 0 1.57477 0 2.72516C0 3.87555 0.941226 4.81677 2.09161 4.81677C3.242 4.81677 4.18323 3.87555 4.18323 2.72516C4.18323 1.57477 3.242 0.633545 2.09161 0.633545ZM2.09161 13.1832C0.941226 13.1832 0 14.1245 0 15.2748C0 16.4252 0.941226 17.3665 2.09161 17.3665C3.242 17.3665 4.18323 16.4252 4.18323 15.2748C4.18323 14.1245 3.242 13.1832 2.09161 13.1832Z" fill="#212529"/>
</svg>
