<svg width="16" height="16" viewBox="0 0 16 16" fill="none" xmlns="http://www.w3.org/2000/svg">
<path d="M0.293 0.292959C0.480528 0.105488 0.734836 0.000172654 1 0.000172654C1.26516 0.000172654 1.51947 0.105488 1.707 0.292959L8 6.58596L14.293 0.292959C14.3852 0.197449 14.4956 0.121267 14.6176 0.0688577C14.7396 0.0164487 14.8708 -0.0111375 15.0036 -0.0122913C15.1364 -0.0134452 15.2681 0.0118565 15.391 0.0621374C15.5139 0.112418 15.6255 0.186671 15.7194 0.280564C15.8133 0.374457 15.8875 0.486109 15.9378 0.609005C15.9881 0.731901 16.0134 0.863581 16.0123 0.99636C16.0111 1.12914 15.9835 1.26036 15.9311 1.38236C15.8787 1.50437 15.8025 1.61471 15.707 1.70696L9.414 7.99996L15.707 14.293C15.8892 14.4816 15.99 14.7342 15.9877 14.9964C15.9854 15.2586 15.8802 15.5094 15.6948 15.6948C15.5094 15.8802 15.2586 15.9854 14.9964 15.9876C14.7342 15.9899 14.4816 15.8891 14.293 15.707L8 9.41396L1.707 15.707C1.5184 15.8891 1.2658 15.9899 1.0036 15.9876C0.741402 15.9854 0.49059 15.8802 0.305182 15.6948C0.119773 15.5094 0.0146045 15.2586 0.012326 14.9964C0.0100476 14.7342 0.110842 14.4816 0.293 14.293L6.586 7.99996L0.293 1.70696C0.105529 1.51943 0.000213623 1.26512 0.000213623 0.999959C0.000213623 0.734795 0.105529 0.480487 0.293 0.292959Z" fill="#212529"/>
</svg>
