<svg width="10" height="7" viewBox="0 0 10 7" fill="none" xmlns="http://www.w3.org/2000/svg">
<path d="M0.906079 1.55523C0.90533 1.4263 0.942992 1.30007 1.01427 1.19263C1.08554 1.08519 1.18719 1.00141 1.30627 0.951965C1.42535 0.902524 1.55645 0.889664 1.68286 0.915025C1.80928 0.940385 1.92527 1.00282 2.01606 1.09436L5.44988 4.53467L8.8837 1.09436C9.00593 0.972131 9.17171 0.903463 9.34457 0.903463C9.43016 0.903463 9.51491 0.920321 9.59399 0.953076C9.67307 0.98583 9.74492 1.03384 9.80544 1.09436C9.86596 1.15488 9.91397 1.22673 9.94672 1.30581C9.97948 1.38489 9.99634 1.46964 9.99634 1.55523C9.99634 1.72809 9.92767 1.89387 9.80544 2.0161L5.91075 5.91079C5.78913 6.03169 5.62461 6.09955 5.45313 6.09955C5.28164 6.09955 5.11712 6.03169 4.9955 5.91079L1.10081 2.0161C1.03948 1.95599 0.990686 1.8843 0.957259 1.80518C0.923832 1.72607 0.906436 1.64112 0.906079 1.55523Z" fill="#212529"/>
</svg>
