<svg width="16" height="14" viewBox="0 0 16 14" fill="none" xmlns="http://www.w3.org/2000/svg">
<path d="M4.25 14C3.72917 14 3.28646 13.8224 2.92187 13.4674C2.55729 13.1123 2.375 12.6811 2.375 12.1739C2.375 11.6667 2.55729 11.2355 2.92187 10.8804C3.28646 10.5254 3.72917 10.3478 4.25 10.3478C4.39583 10.3478 4.53125 10.363 4.65625 10.3935C4.78125 10.4239 4.90104 10.4645 5.01562 10.5152L5.90625 9.43479C5.61458 9.12026 5.41146 8.76521 5.29688 8.36954C5.18229 7.97388 5.15625 7.57825 5.21875 7.18259L3.95312 6.77172C3.77604 7.02535 3.55208 7.22824 3.28125 7.38044C3.01042 7.5326 2.70833 7.6087 2.375 7.6087C1.85417 7.6087 1.41146 7.43113 1.04688 7.07608C0.682292 6.72099 0.5 6.28983 0.5 5.78262C0.5 5.27536 0.682292 4.84421 1.04688 4.48911C1.41146 4.13406 1.85417 3.95653 2.375 3.95653C2.89583 3.95653 3.33854 4.13406 3.70312 4.48911C4.06771 4.84421 4.25 5.27536 4.25 5.78262V5.90437L5.51562 6.3304C5.72396 5.96518 6.0026 5.65578 6.35156 5.40216C6.70052 5.14853 7.09375 4.98625 7.53125 4.91523V3.59127C7.125 3.47968 6.78906 3.26413 6.52344 2.94452C6.25781 2.625 6.125 2.2522 6.125 1.82609C6.125 1.31883 6.30729 0.887676 6.67187 0.532622C7.03646 0.177527 7.47917 0 8 0C8.52083 0 8.96354 0.177527 9.32812 0.532622C9.69271 0.887676 9.875 1.31883 9.875 1.82609C9.875 2.2522 9.73958 2.625 9.46875 2.94452C9.19792 3.26413 8.86458 3.47968 8.46875 3.59127V4.91523C8.90625 4.98625 9.29948 5.14853 9.64844 5.40216C9.99739 5.65578 10.276 5.96518 10.4844 6.3304L11.75 5.90437V5.78262C11.75 5.27536 11.9323 4.84421 12.2969 4.48911C12.6615 4.13406 13.1042 3.95653 13.625 3.95653C14.1458 3.95653 14.5885 4.13406 14.9531 4.48911C15.3177 4.84421 15.5 5.27536 15.5 5.78262C15.5 6.28983 15.3177 6.72099 14.9531 7.07608C14.5885 7.43113 14.1458 7.6087 13.625 7.6087C13.2917 7.6087 12.987 7.5326 12.7109 7.38044C12.4349 7.22824 12.2135 7.02535 12.0469 6.77172L10.7812 7.18259C10.8438 7.57825 10.8177 7.97134 10.7031 8.36192C10.5885 8.75255 10.3854 9.1101 10.0938 9.43479L10.9844 10.5C11.099 10.4493 11.2187 10.4112 11.3438 10.3859C11.4687 10.3605 11.6042 10.3478 11.75 10.3478C12.2708 10.3478 12.7135 10.5254 13.0781 10.8804C13.4427 11.2355 13.625 11.6667 13.625 12.1739C13.625 12.6811 13.4427 13.1123 13.0781 13.4674C12.7135 13.8224 12.2708 14 11.75 14C11.2292 14 10.7865 13.8224 10.4219 13.4674C10.0573 13.1123 9.875 12.6811 9.875 12.1739C9.875 11.971 9.90885 11.7757 9.97656 11.588C10.0443 11.4003 10.1354 11.2304 10.25 11.0783L9.35938 9.99782C8.93229 10.2312 8.47656 10.3478 7.99219 10.3478C7.50781 10.3478 7.05208 10.2312 6.625 9.99782L5.75 11.0783C5.86458 11.2304 5.95573 11.4003 6.02344 11.588C6.09115 11.7757 6.125 11.971 6.125 12.1739C6.125 12.6811 5.94271 13.1123 5.57812 13.4674C5.21354 13.8224 4.77083 14 4.25 14Z" fill="#495057"/>
</svg>
