<svg width="14" height="16" viewBox="0 0 14 16" fill="none" xmlns="http://www.w3.org/2000/svg">
<path d="M7.00103 8.30144C9.23537 8.30144 11.0618 6.47497 11.0618 4.24062C11.0618 2.00628 9.23537 0.17981 7.00103 0.17981C4.76668 0.17981 2.94025 2.00628 2.94025 4.24062C2.94025 6.47497 4.76672 8.30144 7.00103 8.30144Z" fill="#495057"/>
<path d="M13.9701 11.5465C13.8637 11.2805 13.7218 11.0323 13.5622 10.8017C12.7465 9.59589 11.4875 8.79793 10.0689 8.60286C9.89156 8.58515 9.6965 8.62058 9.55462 8.72699C8.80984 9.27671 7.92321 9.56043 7.00109 9.56043C6.07896 9.56043 5.19234 9.27671 4.44756 8.72699C4.30568 8.62058 4.11062 8.56739 3.9333 8.60286C2.51468 8.79793 1.23793 9.59589 0.439961 10.8017C0.280367 11.0323 0.138491 11.2983 0.0321182 11.5465C-0.0210684 11.6529 -0.00335091 11.7771 0.0498357 11.8835C0.191712 12.1317 0.369023 12.38 0.528617 12.5928C0.776866 12.9297 1.04287 13.2311 1.34434 13.5149C1.59259 13.7631 1.8763 13.9936 2.16006 14.2242C3.56093 15.2704 5.24556 15.8201 6.98337 15.8201C8.72118 15.8201 10.4058 15.2704 11.8067 14.2242C12.0904 14.0114 12.3741 13.7631 12.6224 13.5149C12.9061 13.2311 13.1898 12.9297 13.4381 12.5928C13.6154 12.3622 13.7751 12.1317 13.9169 11.8835C14.0055 11.7771 14.0232 11.6529 13.9701 11.5465Z" fill="#495057"/>
</svg>
