<svg width="16" height="16" viewBox="0 0 16 16" fill="none" xmlns="http://www.w3.org/2000/svg">
<path d="M8 16C3.57333 16 0 12.4267 0 8C0 3.57333 3.57333 0 8 0C12.4267 0 16 3.57333 16 8C16 12.4267 12.4267 16 8 16ZM8 1.6C4.48 1.6 1.6 4.48 1.6 8C1.6 11.52 4.48 14.4 8 14.4C11.52 14.4 14.4 11.52 14.4 8C14.4 4.48 11.52 1.6 8 1.6Z" fill="#6C757D"/>
<path d="M10.9333 11.7333C10.72 11.7333 10.5066 11.68 10.3466 11.52L6.93329 8.05328V3.99995C6.93329 3.57328 7.30662 3.19995 7.73329 3.19995C8.15996 3.19995 8.53329 3.57328 8.53329 3.99995V7.41328L11.52 10.4C11.84 10.72 11.84 11.2 11.52 11.52C11.36 11.68 11.1466 11.7333 10.9333 11.7333Z" fill="#6C757D"/>
</svg>
