<svg width="13" height="15" viewBox="0 0 13 15" fill="none" xmlns="http://www.w3.org/2000/svg">
<path d="M10.1111 15H2.88889C2.12296 14.9993 1.38863 14.7117 0.847037 14.2004C0.305443 13.6891 0.000816324 12.9959 0 12.2728V8.18186C0.000816324 7.45878 0.305443 6.76554 0.847037 6.25424C1.38863 5.74294 2.12296 5.45536 2.88889 5.45459H10.1111C10.877 5.45536 11.6114 5.74294 12.153 6.25424C12.6946 6.76554 12.9992 7.45878 13 8.18186V12.2728C12.9992 12.9959 12.6946 13.6891 12.153 14.2004C11.6114 14.7117 10.877 14.9993 10.1111 15ZM2.88889 6.81823C2.50593 6.81864 2.13879 6.96244 1.868 7.21808C1.5972 7.47372 1.44488 7.82033 1.44444 8.18186V12.2728C1.44488 12.6343 1.5972 12.9809 1.868 13.2366C2.13879 13.4922 2.50593 13.636 2.88889 13.6364H10.1111C10.4941 13.636 10.8612 13.4922 11.132 13.2366C11.4028 12.9809 11.5551 12.6343 11.5556 12.2728V8.18186C11.5551 7.82033 11.4028 7.47372 11.132 7.21808C10.8612 6.96244 10.4941 6.81864 10.1111 6.81823H2.88889Z" fill="#6C757D"/>
<path d="M9.75005 6.81818H3.25005C3.1552 6.81821 3.06128 6.80059 2.97364 6.76633C2.88601 6.73207 2.80638 6.68185 2.73931 6.61853C2.67224 6.55522 2.61904 6.48004 2.58276 6.39731C2.54647 6.31458 2.52781 6.22591 2.52783 6.13636V3.75C2.52783 2.75544 2.94633 1.80161 3.69127 1.09835C4.4362 0.395088 5.44656 0 6.50005 0C7.55355 0 8.5639 0.395088 9.30884 1.09835C10.0538 1.80161 10.4723 2.75544 10.4723 3.75V6.13636C10.4723 6.22591 10.4536 6.31458 10.4174 6.39731C10.3811 6.48004 10.3279 6.55522 10.2608 6.61853C10.1937 6.68185 10.1141 6.73207 10.0265 6.76633C9.93883 6.80059 9.8449 6.81821 9.75005 6.81818ZM3.97228 5.45455H9.02783V3.75C9.02783 3.1171 8.76151 2.51012 8.28746 2.06259C7.81341 1.61506 7.17046 1.36364 6.50005 1.36364C5.82965 1.36364 5.1867 1.61506 4.71265 2.06259C4.2386 2.51012 3.97228 3.1171 3.97228 3.75V5.45455Z" fill="#6C757D"/>
<path d="M6.49984 10.5682C7.09815 10.5682 7.58317 10.1103 7.58317 9.54543C7.58317 8.9806 7.09815 8.52271 6.49984 8.52271C5.90153 8.52271 5.4165 8.9806 5.4165 9.54543C5.4165 10.1103 5.90153 10.5682 6.49984 10.5682Z" fill="#6C757D"/>
</svg>
