<svg width="271" height="83" viewBox="0 0 271 83" fill="none" xmlns="http://www.w3.org/2000/svg">
<path d="M48.1571 41.9842C46.2601 39.6848 43.805 38.342 41.3873 37.7062C35.6553 36.1987 29.3178 39.2372 23.4146 39.7664L16.1238 40.4199C8.02422 41.1459 1.87966 48.0355 2.08124 56.165C2.28244 64.2794 8.738 70.8494 16.8476 71.1931L237.693 80.5542C255.562 81.3116 270.12 66.3658 268.893 48.5233L267.886 33.8703C267.311 25.5074 262.527 17.0822 254.395 19.1168C252.147 19.6793 250.163 20.4953 248.827 21.1999C240.395 24.8482 222.377 29.0781 217.767 16.8113C213.156 4.54444 201.245 1.74446 195.865 1.87783C182.514 0.931602 174.248 20.2403 168.423 29.4178C166.502 32.4444 164.075 35.1764 161.827 37.9686C153.24 48.6343 140.261 56.2524 121.454 40.1667C101.259 22.8939 90.0835 50.4143 79.3883 53.2589C68.693 56.1035 54.7182 49.9375 48.1571 41.9842Z" fill="url(#paint0_linear_8714_88082)" stroke="url(#paint1_linear_8714_88082)" stroke-width="3" stroke-linecap="round" stroke-linejoin="round"/>
<defs>
<linearGradient id="paint0_linear_8714_88082" x1="200.404" y1="-5.0022" x2="203.854" y2="54.2849" gradientUnits="userSpaceOnUse">
<stop offset="0.0585895" stop-color="#B57122" stop-opacity="0.25"/>
<stop offset="0.808981" stop-color="#B57122" stop-opacity="0"/>
</linearGradient>
<linearGradient id="paint1_linear_8714_88082" x1="135.007" y1="3.32586" x2="136.525" y2="64.5476" gradientUnits="userSpaceOnUse">
<stop stop-color="#B57122"/>
<stop offset="1" stop-color="#B57122" stop-opacity="0"/>
</linearGradient>
</defs>
</svg>
