<svg width="7" height="15" viewBox="0 0 7 15" fill="none" xmlns="http://www.w3.org/2000/svg">
<path d="M7 3.81356C7 1.71076 5.4299 0 3.5 0C1.5701 0 0 1.71076 0 3.81356C0 5.83068 1.4455 7.48246 3.26667 7.61415V14.7458C3.26667 14.8864 3.3712 15 3.5 15C3.6288 15 3.73333 14.8864 3.73333 14.7458V7.61415C5.5545 7.48246 7 5.83068 7 3.81356ZM2.33333 3.81356C1.8186 3.81356 1.4 3.35746 1.4 2.79661C1.4 2.23576 1.8186 1.77966 2.33333 1.77966C2.84807 1.77966 3.26667 2.23576 3.26667 2.79661C3.26667 3.35746 2.84807 3.81356 2.33333 3.81356Z" fill="#DC3545"/>
</svg>
