<svg width="17" height="18" viewBox="0 0 17 18" fill="none" xmlns="http://www.w3.org/2000/svg">
<path d="M14.6408 11.2969H7.90234L12.6662 16.0607C12.8768 16.2713 13.2256 16.2524 13.4089 16.0177C14.3549 14.8068 14.948 13.3759 15.1356 11.8526C15.172 11.5569 14.9387 11.2969 14.6408 11.2969Z" fill="#343A40"/>
<path d="M6.3482 11.1511C6.2548 11.0577 6.20231 10.931 6.20231 10.7989V4.67644C6.20231 4.37134 5.93008 4.1355 5.62886 4.18411C2.43531 4.69962 -0.00999662 7.48031 3.07275e-05 10.8194C0.0110542 14.492 3.01036 17.49 6.68292 17.4993C8.1157 17.5029 9.48088 17.0592 10.6195 16.2341C10.8667 16.0549 10.893 15.6959 10.6772 15.48L6.3482 11.1511Z" fill="#343A40"/>
<path d="M16.9972 9.75318C16.5045 4.88089 12.6189 0.995295 7.74662 0.502561C7.45278 0.472844 7.19824 0.705631 7.19824 1.00097V10.3016H16.4988C16.7942 10.3016 17.027 10.047 16.9972 9.75318Z" fill="#343A40"/>
</svg>
