<svg width="14" height="10" viewBox="0 0 14 10" fill="none" xmlns="http://www.w3.org/2000/svg">
<path d="M0 8.21808C0 7.86743 0.090229 7.54517 0.270691 7.25128C0.451157 6.95734 0.69091 6.73309 0.989964 6.57843C1.62931 6.25873 2.27898 6.01898 2.93896 5.85913C3.59894 5.69928 4.26923 5.61938 4.94983 5.61938C5.63042 5.61938 6.30071 5.69928 6.96069 5.85913C7.62067 6.01898 8.27033 6.25873 8.90969 6.57843C9.20874 6.73309 9.44849 6.95734 9.62896 7.25128C9.80942 7.54517 9.89965 7.86743 9.89965 8.21808V8.71301C9.89965 9.05328 9.77848 9.3446 9.53615 9.58698C9.29381 9.82928 9.00249 9.95044 8.66219 9.95044H1.23746C0.897156 9.95044 0.605835 9.82928 0.363503 9.58698C0.121166 9.3446 0 9.05328 0 8.71301V8.21808ZM10.7968 9.95044C10.9102 9.76489 10.9953 9.56635 11.052 9.35492C11.1087 9.14349 11.1371 8.92957 11.1371 8.71301V8.0943C11.1371 7.6405 11.0108 7.20483 10.7581 6.78717C10.5055 6.36957 10.1471 6.01123 9.68309 5.71222C10.209 5.77405 10.704 5.87976 11.168 6.02924C11.6321 6.17877 12.0652 6.36188 12.4674 6.57843C12.8386 6.78467 13.1222 7.0141 13.3181 7.26672C13.514 7.51935 13.612 7.79523 13.612 8.0943V8.71301C13.612 9.05328 13.4908 9.3446 13.2485 9.58698C13.0062 9.82928 12.7149 9.95044 12.3746 9.95044H10.7968ZM4.94983 5.00061C4.26923 5.00061 3.68659 4.7583 3.20192 4.27362C2.71725 3.789 2.47491 3.20636 2.47491 2.52576C2.47491 1.84509 2.71725 1.26245 3.20192 0.777771C3.68659 0.293152 4.26923 0.0507812 4.94983 0.0507812C5.63042 0.0507812 6.21306 0.293152 6.69773 0.777771C7.1824 1.26245 7.42474 1.84509 7.42474 2.52576C7.42474 3.20636 7.1824 3.789 6.69773 4.27362C6.21306 4.7583 5.63042 5.00061 4.94983 5.00061ZM11.1371 2.52576C11.1371 3.20636 10.8948 3.789 10.4101 4.27362C9.92543 4.7583 9.3428 5.00061 8.66219 5.00061C8.54876 5.00061 8.40439 4.98773 8.22908 4.96198C8.05378 4.93616 7.90941 4.90784 7.79597 4.87689C8.0744 4.54688 8.28838 4.18085 8.4379 3.77869C8.58743 3.37646 8.66219 2.95886 8.66219 2.52576C8.66219 2.09265 8.58743 1.67493 8.4379 1.27283C8.28838 0.870605 8.0744 0.504517 7.79597 0.174561C7.94034 0.122986 8.08471 0.0894775 8.22908 0.0739746C8.37345 0.0585327 8.51782 0.0507812 8.66219 0.0507812C9.3428 0.0507812 9.92543 0.293152 10.4101 0.777771C10.8948 1.26245 11.1371 1.84509 11.1371 2.52576Z" fill="#6C757D"/>
</svg>
