<svg width="14" height="14" viewBox="0 0 14 14" fill="none" xmlns="http://www.w3.org/2000/svg">
<path d="M10.5 10.7985C10.9596 10.7985 11.4148 10.7209 11.8394 10.57C12.264 10.4192 12.6499 10.1981 12.9749 9.9194C13.2999 9.64069 13.5577 9.30981 13.7336 8.94567C13.9095 8.58152 14 8.19123 14 7.79708C14 7.40292 13.9095 7.01263 13.7336 6.64848C13.5577 6.28434 13.2999 5.95346 12.9749 5.67476C12.6499 5.39605 12.264 5.17497 11.8394 5.02413C11.4148 4.87329 10.9596 4.79566 10.5 4.79566C9.88885 4.79554 9.28845 4.93357 8.75933 5.19585H8.66133C9.14788 4.9491 9.55107 4.5979 9.83118 4.17686C10.1113 3.75582 10.2586 3.27946 10.2587 2.79472C10.2587 2.42771 10.1744 2.0643 10.0107 1.72523C9.84688 1.38615 9.60683 1.07807 9.3042 0.818554C9.00158 0.55904 8.64232 0.353183 8.24692 0.212735C7.85152 0.0722875 7.42774 0 6.99977 0C6.57179 0 6.14801 0.0722875 5.75261 0.212735C5.35722 0.353183 4.99795 0.55904 4.69533 0.818554C4.39271 1.07807 4.15265 1.38615 3.98887 1.72523C3.8251 2.0643 3.7408 2.42771 3.7408 2.79472C3.74089 3.27946 3.88825 3.75582 4.16835 4.17686C4.44846 4.5979 4.85165 4.9491 5.3382 5.19585H5.24113C4.7278 4.94253 4.13467 4.79566 3.5 4.79566C2.57174 4.79566 1.6815 5.11188 1.02513 5.67476C0.368749 6.23763 0 7.00105 0 7.79708C0 8.5931 0.368749 9.35652 1.02513 9.9194C1.6815 10.4823 2.57174 10.7985 3.5 10.7985C3.97774 10.7986 4.45041 10.7145 4.8887 10.5515C5.327 10.3885 5.72158 10.15 6.048 9.85084C5.8562 11.5 3.829 12.7994 1.86667 12.7994H2.1C1.91435 12.7994 1.7363 12.8627 1.60503 12.9753C1.47375 13.0878 1.4 13.2405 1.4 13.3997C1.4 13.5589 1.47375 13.7116 1.60503 13.8242C1.7363 13.9368 1.91435 14 2.1 14H11.9C12.0857 14 12.2637 13.9368 12.395 13.8242C12.5262 13.7116 12.6 13.5589 12.6 13.3997C12.6 13.2405 12.5262 13.0878 12.395 12.9753C12.2637 12.8627 12.0857 12.7994 11.9 12.7994H12.1333C10.171 12.7994 8.1438 11.4996 7.95247 9.85044C8.27869 10.1497 8.67316 10.3883 9.11139 10.5514C9.54963 10.7145 10.0223 10.7986 10.5 10.7985Z" fill="#22B573"/>
</svg>
