<svg width="15" height="15" viewBox="0 0 15 15" fill="none" xmlns="http://www.w3.org/2000/svg">
<path d="M3.6849 14.1254C3.17311 14.1254 2.73808 13.9463 2.37983 13.5881C2.02158 13.2298 1.84245 12.7948 1.84245 12.283C1.84245 11.7712 2.02158 11.3362 2.37983 10.9779C2.73808 10.6197 3.17311 10.4406 3.6849 10.4406C3.8282 10.4406 3.96126 10.4559 4.08409 10.4866C4.20692 10.5173 4.32464 10.5583 4.43723 10.6094L5.31239 9.51933C5.02579 9.20199 4.82619 8.84375 4.7136 8.44454C4.601 8.04533 4.57541 7.64616 4.63683 7.24695L3.39318 6.8324C3.21917 7.0883 2.9991 7.29301 2.73296 7.44657C2.46683 7.6001 2.16999 7.67688 1.84245 7.67688C1.33066 7.67688 0.895635 7.49772 0.537381 7.13949C0.179127 6.78121 0 6.34619 0 5.83443C0 5.32263 0.179127 4.88761 0.537381 4.52934C0.895635 4.1711 1.33066 3.99198 1.84245 3.99198C2.35424 3.99198 2.78926 4.1711 3.14752 4.52934C3.50577 4.88761 3.6849 5.32263 3.6849 5.83443V5.95727L4.92855 6.38713C5.13327 6.01864 5.40707 5.70646 5.74997 5.45056C6.09287 5.19466 6.47928 5.03092 6.90918 4.95927V3.62345C6.50998 3.51086 6.17988 3.29338 5.91886 2.97091C5.65785 2.64852 5.52734 2.27238 5.52734 1.84245C5.52734 1.33065 5.70647 0.89563 6.06473 0.537394C6.42298 0.179118 6.858 0 7.36979 0C7.88158 0 8.31661 0.179118 8.67486 0.537394C9.03311 0.89563 9.21224 1.33065 9.21224 1.84245C9.21224 2.27238 9.07918 2.64852 8.81304 2.97091C8.54691 3.29338 8.21937 3.51086 7.83041 3.62345V4.95927C8.26031 5.03092 8.64671 5.19466 8.98961 5.45056C9.33251 5.70646 9.60632 6.01864 9.81104 6.38713L11.0547 5.95727V5.83443C11.0547 5.32263 11.2338 4.88761 11.5921 4.52934C11.9503 4.1711 12.3853 3.99198 12.8971 3.99198C13.4089 3.99198 13.844 4.1711 14.2022 4.52934C14.5605 4.88761 14.7396 5.32263 14.7396 5.83443C14.7396 6.34619 14.5605 6.78121 14.2022 7.13949C13.844 7.49772 13.4089 7.67688 12.8971 7.67688C12.5696 7.67688 12.2702 7.6001 11.9989 7.44657C11.7277 7.29301 11.5102 7.0883 11.3464 6.8324L10.1028 7.24695C10.1642 7.64616 10.1386 8.04276 10.026 8.43685C9.9134 8.83097 9.7138 9.19173 9.42719 9.51933L10.3024 10.5941C10.4149 10.5429 10.5327 10.5045 10.6555 10.4789C10.7783 10.4533 10.9114 10.4406 11.0547 10.4406C11.5665 10.4406 12.0015 10.6197 12.3598 10.9779C12.718 11.3362 12.8971 11.7712 12.8971 12.283C12.8971 12.7948 12.718 13.2298 12.3598 13.5881C12.0015 13.9463 11.5665 14.1254 11.0547 14.1254C10.5429 14.1254 10.1079 13.9463 9.74962 13.5881C9.39137 13.2298 9.21224 12.7948 9.21224 12.283C9.21224 12.0782 9.24551 11.8812 9.31204 11.6919C9.37857 11.5025 9.46814 11.3311 9.58073 11.1775L8.70557 10.0874C8.2859 10.3228 7.83808 10.4406 7.36212 10.4406C6.88615 10.4406 6.43833 10.3228 6.01866 10.0874L5.15886 11.1775C5.27145 11.3311 5.36101 11.5025 5.42755 11.6919C5.49408 11.8812 5.52734 12.0782 5.52734 12.283C5.52734 12.7948 5.34822 13.2298 4.98996 13.5881C4.63171 13.9463 4.19669 14.1254 3.6849 14.1254Z" fill="#22B573"/>
</svg>
