<svg width="17" height="16" viewBox="0 0 17 16" fill="none" xmlns="http://www.w3.org/2000/svg">
<path d="M11.1665 11.2558C11.5167 11.2558 11.8635 11.1893 12.187 11.06C12.5105 10.9307 12.8045 10.7412 13.0521 10.5023C13.2997 10.2634 13.4962 9.97984 13.6302 9.66771C13.7642 9.35559 13.8332 9.02105 13.8332 8.68321C13.8332 8.34536 13.7642 8.01083 13.6302 7.6987C13.4962 7.38657 13.2997 7.10297 13.0521 6.86408C12.8045 6.62518 12.5105 6.43568 12.187 6.3064C11.8635 6.17711 11.5167 6.11057 11.1665 6.11057C10.7009 6.11046 10.2434 6.22878 9.84028 6.45359H9.76561C10.1363 6.24208 10.4435 5.94106 10.6569 5.58017C10.8703 5.21927 10.9826 4.81096 10.9827 4.39547C10.9827 4.08089 10.9185 3.7694 10.7937 3.47876C10.6689 3.18813 10.486 2.92406 10.2554 2.70162C10.0249 2.47918 9.75112 2.30273 9.44987 2.18234C9.14862 2.06196 8.82573 2 8.49966 2C8.17358 2 7.8507 2.06196 7.54945 2.18234C7.24819 2.30273 6.97447 2.47918 6.7439 2.70162C6.51333 2.92406 6.33043 3.18813 6.20565 3.47876C6.08086 3.7694 6.01664 4.08089 6.01664 4.39547C6.01671 4.81096 6.12898 5.21927 6.34239 5.58017C6.55581 5.94106 6.863 6.24208 7.2337 6.45359H7.15975C6.76864 6.23645 6.31673 6.11057 5.83317 6.11057C5.12593 6.11057 4.44765 6.38161 3.94755 6.86408C3.44746 7.34654 3.1665 8.0009 3.1665 8.68321C3.1665 9.36551 3.44746 10.0199 3.94755 10.5023C4.44765 10.9848 5.12593 11.2558 5.83317 11.2558C6.19716 11.2559 6.55729 11.1838 6.89123 11.0441C7.22517 10.9044 7.5258 10.7 7.7745 10.4436C7.62837 11.8572 6.08384 12.9709 4.58873 12.9709H4.7665C4.62506 12.9709 4.4894 13.0252 4.38938 13.1216C4.28936 13.2181 4.23317 13.349 4.23317 13.4855C4.23317 13.6219 4.28936 13.7528 4.38938 13.8493C4.4894 13.9458 4.62506 14 4.7665 14H12.2332C12.3746 14 12.5103 13.9458 12.6103 13.8493C12.7103 13.7528 12.7665 13.6219 12.7665 13.4855C12.7665 13.349 12.7103 13.2181 12.6103 13.1216C12.5103 13.0252 12.3746 12.9709 12.2332 12.9709H12.4109C10.9158 12.9709 9.3713 11.8568 9.22553 10.4432C9.47407 10.6998 9.77462 10.9043 10.1085 11.0441C10.4424 11.1838 10.8025 11.2559 11.1665 11.2558Z" fill="#343A40"/>
</svg>
