<svg width="23" height="25" viewBox="0 0 23 25" fill="none" xmlns="http://www.w3.org/2000/svg">
<path d="M15.7417 10.6243C15.7417 10.0907 15.3092 9.6582 14.7756 9.6582H4.82519C4.29164 9.6582 3.85913 10.0907 3.85913 10.6243C3.85913 11.1578 4.29164 11.5903 4.82519 11.5903H14.7756C15.3092 11.5903 15.7417 11.1578 15.7417 10.6243Z" fill="white"/>
<path d="M4.82519 13.5254C4.29164 13.5254 3.85913 13.9579 3.85913 14.4915C3.85913 15.025 4.29164 15.4575 4.82519 15.4575H10.8684C11.402 15.4575 11.8345 15.025 11.8345 14.4915C11.8345 13.9579 11.402 13.5254 10.8684 13.5254H4.82519Z" fill="white"/>
<path d="M7.09518 22.799H3.86424C2.79887 22.799 1.93212 21.9323 1.93212 20.8669V3.86424C1.93212 2.79887 2.79887 1.93212 3.86424 1.93212H15.7414C16.8068 1.93212 17.6735 2.79887 17.6735 3.86424V9.80551C17.6735 10.3391 18.1061 10.7716 18.6396 10.7716C19.1732 10.7716 19.6057 10.3391 19.6057 9.80551V3.86424C19.6057 1.7335 17.8722 0 15.7414 0H3.86424C1.7335 0 0 1.7335 0 3.86424V20.8669C0 22.9977 1.7335 24.7311 3.86424 24.7311H7.09518C7.62874 24.7311 8.06124 24.2986 8.06124 23.7651C8.06124 23.2315 7.62874 22.799 7.09518 22.799Z" fill="white"/>
<path d="M21.3165 13.9921C20.1865 12.8621 18.3478 12.8621 17.2186 13.9914L11.9148 19.2835C11.8021 19.3959 11.719 19.5343 11.6728 19.6865L10.5177 23.4892C10.4153 23.8264 10.5045 24.1924 10.7506 24.4446C10.9349 24.6335 11.1853 24.7361 11.4421 24.7361C11.528 24.7361 11.6148 24.7246 11.6999 24.701L15.5992 23.6209C15.7597 23.5764 15.9059 23.4913 16.0238 23.3736L21.3165 18.0909C22.4465 16.9609 22.4465 15.1222 21.3165 13.9921ZM14.8386 21.8267L12.8769 22.3701L13.451 20.4801L17.0298 16.9093L18.3962 18.2758L14.8386 21.8267ZM19.951 16.7241L19.7638 16.9109L18.3975 15.5446L18.5841 15.3584C18.9608 14.9818 19.5736 14.9818 19.9503 15.3584C20.327 15.7351 20.327 16.348 19.951 16.7241Z" fill="white"/>
<path d="M14.7756 5.79492H4.82519C4.29164 5.79492 3.85913 6.22743 3.85913 6.76098C3.85913 7.29454 4.29164 7.72704 4.82519 7.72704H14.7756C15.3092 7.72704 15.7417 7.29454 15.7417 6.76098C15.7417 6.22743 15.3092 5.79492 14.7756 5.79492Z" fill="white"/>
</svg>
