<svg width="17" height="16" viewBox="0 0 17 16" fill="none" xmlns="http://www.w3.org/2000/svg">
<path d="M4.85152 15.1254C4.33973 15.1254 3.90471 14.9463 3.54645 14.5881C3.1882 14.2298 3.00907 13.7948 3.00907 13.283C3.00907 12.7712 3.1882 12.3362 3.54645 11.9779C3.90471 11.6197 4.33973 11.4406 4.85152 11.4406C4.99482 11.4406 5.12789 11.4559 5.25072 11.4866C5.37355 11.5173 5.49126 11.5583 5.60386 11.6094L6.47902 10.5193C6.19242 10.202 5.99282 9.84375 5.88022 9.44454C5.76763 9.04533 5.74204 8.64616 5.80345 8.24695L4.5598 7.8324C4.38579 8.0883 4.16572 8.29301 3.89959 8.44657C3.63346 8.6001 3.33662 8.67688 3.00907 8.67688C2.49728 8.67688 2.06226 8.49772 1.70401 8.13949C1.34575 7.78121 1.16663 7.34619 1.16663 6.83443C1.16663 6.32263 1.34575 5.88761 1.70401 5.52934C2.06226 5.1711 2.49728 4.99198 3.00907 4.99198C3.52087 4.99198 3.95589 5.1711 4.31414 5.52934C4.6724 5.88761 4.85152 6.32263 4.85152 6.83443V6.95727L6.09518 7.38713C6.29989 7.01864 6.5737 6.70646 6.9166 6.45056C7.2595 6.19466 7.6459 6.03092 8.07581 5.95927V4.62345C7.67661 4.51086 7.3465 4.29338 7.08549 3.97091C6.82448 3.64852 6.69397 3.27238 6.69397 2.84245C6.69397 2.33065 6.8731 1.89563 7.23135 1.53739C7.58961 1.17912 8.02463 1 8.53642 1C9.04821 1 9.48323 1.17912 9.84149 1.53739C10.1997 1.89563 10.3789 2.33065 10.3789 2.84245C10.3789 3.27238 10.2458 3.64852 9.97967 3.97091C9.71354 4.29338 9.38599 4.51086 8.99703 4.62345V5.95927C9.42694 6.03092 9.81334 6.19466 10.1562 6.45056C10.4991 6.70646 10.7729 7.01864 10.9777 7.38713L12.2213 6.95727V6.83443C12.2213 6.32263 12.4004 5.88761 12.7587 5.52934C13.117 5.1711 13.552 4.99198 14.0638 4.99198C14.5756 4.99198 15.0106 5.1711 15.3688 5.52934C15.7271 5.88761 15.9062 6.32263 15.9062 6.83443C15.9062 7.34619 15.7271 7.78121 15.3688 8.13949C15.0106 8.49772 14.5756 8.67688 14.0638 8.67688C13.7362 8.67688 13.4368 8.6001 13.1656 8.44657C12.8943 8.29301 12.6768 8.0883 12.513 7.8324L11.2694 8.24695C11.3308 8.64616 11.3052 9.04276 11.1926 9.43685C11.08 9.83097 10.8804 10.1917 10.5938 10.5193L11.469 11.5941C11.5816 11.5429 11.6993 11.5045 11.8221 11.4789C11.9449 11.4533 12.078 11.4406 12.2213 11.4406C12.7331 11.4406 13.1681 11.6197 13.5264 11.9779C13.8846 12.3362 14.0638 12.7712 14.0638 13.283C14.0638 13.7948 13.8846 14.2298 13.5264 14.5881C13.1681 14.9463 12.7331 15.1254 12.2213 15.1254C11.7095 15.1254 11.2745 14.9463 10.9162 14.5881C10.558 14.2298 10.3789 13.7948 10.3789 13.283C10.3789 13.0782 10.4121 12.8812 10.4787 12.6919C10.5452 12.5025 10.6348 12.3311 10.7474 12.1775L9.87219 11.0874C9.45253 11.3228 9.00471 11.4406 8.52874 11.4406C8.05278 11.4406 7.60496 11.3228 7.18529 11.0874L6.32548 12.1775C6.43808 12.3311 6.52764 12.5025 6.59417 12.6919C6.6607 12.8812 6.69397 13.0782 6.69397 13.283C6.69397 13.7948 6.51484 14.2298 6.15659 14.5881C5.79834 14.9463 5.36331 15.1254 4.85152 15.1254Z" fill="#343A40"/>
</svg>
