<svg width="17" height="16" viewBox="0 0 17 16" fill="none" xmlns="http://www.w3.org/2000/svg">
<path d="M4.8514 15.1254C4.33961 15.1254 3.90459 14.9463 3.54633 14.5881C3.18808 14.2298 3.00895 13.7948 3.00895 13.283C3.00895 12.7712 3.18808 12.3362 3.54633 11.9779C3.90459 11.6197 4.33961 11.4406 4.8514 11.4406C4.9947 11.4406 5.12777 11.4559 5.2506 11.4866C5.37343 11.5173 5.49114 11.5583 5.60373 11.6094L6.4789 10.5193C6.19229 10.202 5.99269 9.84375 5.8801 9.44454C5.76751 9.04533 5.74192 8.64616 5.80333 8.24695L4.55968 7.8324C4.38567 8.0883 4.1656 8.29301 3.89947 8.44657C3.63334 8.6001 3.3365 8.67688 3.00895 8.67688C2.49716 8.67688 2.06214 8.49772 1.70388 8.13949C1.34563 7.78121 1.1665 7.34619 1.1665 6.83443C1.1665 6.32263 1.34563 5.88761 1.70388 5.52934C2.06214 5.1711 2.49716 4.99198 3.00895 4.99198C3.52074 4.99198 3.95577 5.1711 4.31402 5.52934C4.67227 5.88761 4.8514 6.32263 4.8514 6.83443V6.95727L6.09505 7.38713C6.29977 7.01864 6.57358 6.70646 6.91648 6.45056C7.25938 6.19466 7.64578 6.03092 8.07568 5.95927V4.62345C7.67649 4.51086 7.34638 4.29338 7.08537 3.97091C6.82436 3.64852 6.69385 3.27238 6.69385 2.84245C6.69385 2.33065 6.87298 1.89563 7.23123 1.53739C7.58948 1.17912 8.02451 1 8.5363 1C9.04809 1 9.48311 1.17912 9.84136 1.53739C10.1996 1.89563 10.3787 2.33065 10.3787 2.84245C10.3787 3.27238 10.2457 3.64852 9.97955 3.97091C9.71342 4.29338 9.38587 4.51086 8.99691 4.62345V5.95927C9.42681 6.03092 9.81322 6.19466 10.1561 6.45056C10.499 6.70646 10.7728 7.01864 10.9775 7.38713L12.2212 6.95727V6.83443C12.2212 6.32263 12.4003 5.88761 12.7586 5.52934C13.1168 5.1711 13.5519 4.99198 14.0636 4.99198C14.5754 4.99198 15.0105 5.1711 15.3687 5.52934C15.727 5.88761 15.9061 6.32263 15.9061 6.83443C15.9061 7.34619 15.727 7.78121 15.3687 8.13949C15.0105 8.49772 14.5754 8.67688 14.0636 8.67688C13.7361 8.67688 13.4367 8.6001 13.1654 8.44657C12.8942 8.29301 12.6767 8.0883 12.5129 7.8324L11.2693 8.24695C11.3307 8.64616 11.3051 9.04276 11.1925 9.43685C11.0799 9.83097 10.8803 10.1917 10.5937 10.5193L11.4689 11.5941C11.5815 11.5429 11.6992 11.5045 11.822 11.4789C11.9448 11.4533 12.0779 11.4406 12.2212 11.4406C12.733 11.4406 13.168 11.6197 13.5263 11.9779C13.8845 12.3362 14.0636 12.7712 14.0636 13.283C14.0636 13.7948 13.8845 14.2298 13.5263 14.5881C13.168 14.9463 12.733 15.1254 12.2212 15.1254C11.7094 15.1254 11.2744 14.9463 10.9161 14.5881C10.5579 14.2298 10.3787 13.7948 10.3787 13.283C10.3787 13.0782 10.412 12.8812 10.4785 12.6919C10.5451 12.5025 10.6346 12.3311 10.7472 12.1775L9.87207 11.0874C9.4524 11.3228 9.00459 11.4406 8.52862 11.4406C8.05265 11.4406 7.60484 11.3228 7.18517 11.0874L6.32536 12.1775C6.43795 12.3311 6.52752 12.5025 6.59405 12.6919C6.66058 12.8812 6.69385 13.0782 6.69385 13.283C6.69385 13.7948 6.51472 14.2298 6.15647 14.5881C5.79821 14.9463 5.36319 15.1254 4.8514 15.1254Z" fill="#343A40"/>
</svg>
