<svg width="20" height="20" viewBox="0 0 20 20" fill="none" xmlns="http://www.w3.org/2000/svg">
<path d="M10 0C15.5142 0 20 4.48583 20 10C20 15.5142 15.5142 20 10 20H0V10C0 4.48583 4.48583 0 10 0ZM1.66667 18.3333H10C14.595 18.3333 18.3333 14.595 18.3333 10C18.3333 5.405 14.595 1.66667 10 1.66667C5.405 1.66667 1.66667 5.405 1.66667 10V18.3333ZM8.75 10C8.75 10.69 9.31 11.25 10 11.25C10.69 11.25 11.25 10.69 11.25 10C11.25 9.31 10.69 8.75 10 8.75C9.31 8.75 8.75 9.31 8.75 10ZM4.58333 10C4.58333 10.69 5.14333 11.25 5.83333 11.25C6.52333 11.25 7.08333 10.69 7.08333 10C7.08333 9.31 6.52333 8.75 5.83333 8.75C5.14333 8.75 4.58333 9.31 4.58333 10ZM12.9167 10C12.9167 10.69 13.4767 11.25 14.1667 11.25C14.8567 11.25 15.4167 10.69 15.4167 10C15.4167 9.31 14.8567 8.75 14.1667 8.75C13.4767 8.75 12.9167 9.31 12.9167 10Z" fill="#495057"/>
</svg>
