<svg width="16" height="17" viewBox="0 0 16 17" fill="none" xmlns="http://www.w3.org/2000/svg">
<path d="M8.36719 0.898438C12.5577 0.898438 15.9668 4.3075 15.9668 8.49805C15.9668 12.6886 12.5577 16.0977 8.36719 16.0977H0.767578V8.49805C0.767578 4.3075 4.17664 0.898438 8.36719 0.898438ZM2.03418 14.8311H8.36719C11.8592 14.8311 14.7002 11.9901 14.7002 8.49805C14.7002 5.00603 11.8592 2.16504 8.36719 2.16504C4.87517 2.16504 2.03418 5.00603 2.03418 8.49805V14.8311ZM7.41724 8.49805C7.41724 9.02242 7.84281 9.448 8.36719 9.448C8.89156 9.448 9.31714 9.02242 9.31714 8.49805C9.31714 7.97367 8.89156 7.5481 8.36719 7.5481C7.84281 7.5481 7.41724 7.97367 7.41724 8.49805ZM4.25073 8.49805C4.25073 9.02242 4.67631 9.448 5.20068 9.448C5.72506 9.448 6.15063 9.02242 6.15063 8.49805C6.15063 7.97367 5.72506 7.5481 5.20068 7.5481C4.67631 7.5481 4.25073 7.97367 4.25073 8.49805ZM10.5837 8.49805C10.5837 9.02242 11.0093 9.448 11.5337 9.448C12.0581 9.448 12.4836 9.02242 12.4836 8.49805C12.4836 7.97367 12.0581 7.5481 11.5337 7.5481C11.0093 7.5481 10.5837 7.97367 10.5837 8.49805Z" fill="#ADB5BD"/>
</svg>
