<svg width="22" height="22" viewBox="0 0 22 22" fill="none" xmlns="http://www.w3.org/2000/svg">
<path d="M10.0655 20.7136L15.5207 14.8951C15.8851 14.5065 16.0918 13.9709 16.0918 13.4143V2.92208C16.0918 1.76678 15.2056 0.821539 14.1225 0.821539H5.26021C4.47246 0.821539 3.76348 1.32567 3.44838 2.09236L0.238274 10.0849C-0.588869 12.1644 0.838938 14.475 2.95603 14.475H8.51955L7.58409 19.2853C7.48562 19.8104 7.63332 20.346 7.98781 20.7241C8.56878 21.3333 9.49439 21.3333 10.0655 20.7136ZM20.0306 0.821539C18.9475 0.821539 18.0612 1.76678 18.0612 2.92208V11.3242C18.0612 12.4795 18.9475 13.4248 20.0306 13.4248C21.1138 13.4248 22 12.4795 22 11.3242V2.92208C22 1.76678 21.1138 0.821539 20.0306 0.821539Z" fill="#DC3545"/>
</svg>
