<svg width="18" height="19" viewBox="0 0 18 19" fill="none" xmlns="http://www.w3.org/2000/svg">
<path fill-rule="evenodd" clip-rule="evenodd" d="M5.56775 6.71978H3.14234C2.57448 6.72094 2.03017 6.97358 1.62863 7.42236C1.22709 7.87114 1.00104 8.47949 1 9.11416V15.6531C1.00104 16.2878 1.22709 16.8961 1.62863 17.3449C2.03017 17.7937 2.57448 18.0463 3.14234 18.0475H14.3361C14.8388 18.0472 15.3254 17.8495 15.7109 17.4889C16.0964 17.1284 16.3563 16.6279 16.4453 16.075L17.4986 9.53889C17.5539 9.19401 17.5409 8.83976 17.4605 8.5011C17.3801 8.16245 17.2341 7.84763 17.033 7.57884C16.8319 7.31004 16.5805 7.09381 16.2965 6.94539C16.0126 6.79697 15.7029 6.71996 15.3894 6.7198H11.5485V3.26505C11.5485 2.79747 11.4219 2.34084 11.1853 1.95524C10.9487 1.56963 10.6132 1.2731 10.2229 1.10468C9.83261 0.936248 9.40587 0.903807 8.99878 1.01162C8.5917 1.11943 8.22336 1.36245 7.94221 1.7087L7.93964 1.71153C7.02153 2.85456 6.53438 4.6361 6.01415 5.9131C5.92647 6.14139 5.81973 6.35995 5.69535 6.56586C5.65659 6.62091 5.6139 6.67238 5.56775 6.71978ZM4.73378 15.9951H3.14232C3.10186 15.9952 3.06181 15.9862 3.02455 15.9685C2.98729 15.9509 2.9536 15.925 2.92548 15.8925C2.897 15.8613 2.87443 15.8241 2.8591 15.7829C2.84378 15.7418 2.83602 15.6976 2.83629 15.6531V9.11415C2.83602 9.06959 2.84378 9.02543 2.8591 8.9843C2.87443 8.94316 2.897 8.90589 2.92548 8.87471C2.9536 8.8422 2.98729 8.81635 3.02455 8.79872C3.06181 8.78109 3.10186 8.77203 3.14232 8.7721H4.73378V15.9951ZM6.57007 8.44146C6.91186 8.17151 7.19368 7.81752 7.39385 7.40673C7.73944 6.64679 8.046 5.86545 8.31204 5.06651C8.54289 4.3502 8.87717 3.681 9.3016 3.08547C9.33411 3.04669 9.37614 3.01951 9.42242 3.00734C9.4687 2.99517 9.51717 2.99855 9.56174 3.01706C9.60643 3.03635 9.64478 3.07043 9.67167 3.11474C9.69855 3.15905 9.71269 3.21148 9.71219 3.26502V7.74593C9.71211 7.88072 9.7358 8.0142 9.78192 8.13874C9.82803 8.26329 9.89566 8.37645 9.98094 8.47176C10.0662 8.56706 10.1675 8.64264 10.2789 8.69418C10.3903 8.74571 10.5098 8.77219 10.6304 8.7721H15.3894C15.4344 8.77206 15.4789 8.78331 15.5195 8.80501C15.5601 8.82671 15.5958 8.85831 15.624 8.89749C15.6532 8.93543 15.6744 8.98028 15.6859 9.02866C15.6974 9.07704 15.6989 9.12771 15.6904 9.17686L14.637 15.7129C14.624 15.7917 14.5868 15.8629 14.5319 15.9144C14.477 15.9659 14.4078 15.9944 14.3361 15.9951H6.57008L6.57007 8.44146Z" fill="#ADB5BD" stroke="white" stroke-width="0.839874"/>
</svg>
