<svg width="22" height="20" viewBox="0 0 22 20" fill="none" xmlns="http://www.w3.org/2000/svg">
<path fill-rule="evenodd" clip-rule="evenodd" d="M6.07846 6.91238H2.85088C2.09521 6.91367 1.37088 7.19441 0.836538 7.69311C0.302195 8.19181 0.00138876 8.86781 0 9.57307V16.8393C0.00138876 17.5446 0.302195 18.2206 0.836538 18.7193C1.37088 19.218 2.09521 19.4987 2.85088 19.5H17.7468C18.4157 19.4997 19.0632 19.28 19.5763 18.8793C20.0893 18.4787 20.4352 17.9226 20.5535 17.3081L21.9552 10.045C22.0288 9.66181 22.0115 9.26816 21.9045 8.89183C21.7975 8.51551 21.6033 8.16568 21.3357 7.86698C21.0681 7.56829 20.7335 7.32802 20.3556 7.16308C19.9777 6.99815 19.5656 6.91258 19.1484 6.9124H14.0372V3.0734C14.0372 2.55382 13.8687 2.04641 13.5539 1.61791C13.239 1.18941 12.7925 0.859908 12.2732 0.672747C11.7538 0.485587 11.186 0.449537 10.6442 0.569342C10.1025 0.689147 9.61235 0.959193 9.23822 1.34395L9.2348 1.3471C8.01305 2.61726 7.36477 4.59695 6.67249 6.01598C6.55581 6.26967 6.41376 6.51253 6.24825 6.74134C6.19668 6.80252 6.13987 6.85971 6.07846 6.91238ZM4.96866 17.2194H2.85086C2.79702 17.2195 2.74371 17.2094 2.69413 17.1898C2.64455 17.1702 2.59972 17.1415 2.5623 17.1054C2.5244 17.0707 2.49436 17.0293 2.47397 16.9836C2.45358 16.9379 2.44325 16.8888 2.44361 16.8393V9.57306C2.44325 9.52355 2.45358 9.47448 2.47397 9.42877C2.49436 9.38305 2.5244 9.34164 2.5623 9.30699C2.59972 9.27086 2.64455 9.24214 2.69413 9.22255C2.74371 9.20295 2.79702 9.19289 2.85086 9.19296H4.96866V17.2194ZM7.41227 8.82555C7.86711 8.52558 8.24214 8.13222 8.5085 7.67574C8.96839 6.83127 9.37634 5.96303 9.73036 5.07523C10.0376 4.27925 10.4824 3.53562 11.0472 2.87385C11.0905 2.83076 11.1464 2.80056 11.208 2.78703C11.2696 2.77351 11.3341 2.77727 11.3934 2.79783C11.4528 2.81926 11.5039 2.85713 11.5397 2.90638C11.5754 2.95562 11.5943 3.01388 11.5936 3.07337V8.05267C11.5935 8.20245 11.625 8.35077 11.6864 8.48917C11.7477 8.62756 11.8377 8.75331 11.9512 8.85922C12.0647 8.96513 12.1994 9.04911 12.3477 9.10638C12.496 9.16365 12.655 9.19307 12.8154 9.19296H19.1485C19.2084 9.19293 19.2675 9.20543 19.3215 9.22954C19.3755 9.25366 19.4231 9.28877 19.4606 9.3323C19.4995 9.37447 19.5277 9.4243 19.543 9.47806C19.5583 9.53183 19.5603 9.58813 19.549 9.64274L18.1472 16.9058C18.1299 16.9933 18.0804 17.0725 18.0074 17.1297C17.9343 17.1869 17.8422 17.2186 17.7468 17.2194H7.41228L7.41227 8.82555Z" fill="#22B573"/>
</svg>
