<svg width="13" height="16" viewBox="0 0 13 16" fill="none" xmlns="http://www.w3.org/2000/svg">
<path d="M10.1111 15.4986H2.88889C2.12296 15.4978 1.38863 15.2102 0.847037 14.6989C0.305443 14.1876 0.000816324 13.4944 0 12.7713V8.6804C0.000816324 7.95732 0.305443 7.26407 0.847037 6.75278C1.38863 6.24148 2.12296 5.9539 2.88889 5.95312H10.1111C10.877 5.9539 11.6114 6.24148 12.153 6.75278C12.6946 7.26407 12.9992 7.95732 13 8.6804V12.7713C12.9992 13.4944 12.6946 14.1876 12.153 14.6989C11.6114 15.2102 10.877 15.4978 10.1111 15.4986ZM2.88889 7.31676C2.50593 7.31717 2.13879 7.46098 1.868 7.71662C1.5972 7.97226 1.44488 8.31887 1.44444 8.6804V12.7713C1.44488 13.1328 1.5972 13.4794 1.868 13.7351C2.13879 13.9907 2.50593 14.1345 2.88889 14.1349H10.1111C10.4941 14.1345 10.8612 13.9907 11.132 13.7351C11.4028 13.4794 11.5551 13.1328 11.5556 12.7713V8.6804C11.5551 8.31887 11.4028 7.97226 11.132 7.71662C10.8612 7.46098 10.4941 7.31717 10.1111 7.31676H2.88889Z" fill="#495057"/>
<path d="M9.75005 7.31818H3.25005C3.1552 7.31821 3.06128 7.30059 2.97364 7.26633C2.88601 7.23207 2.80638 7.18185 2.73931 7.11853C2.67224 7.05522 2.61904 6.98004 2.58276 6.89731C2.54647 6.81458 2.52781 6.72591 2.52783 6.63636V4.25C2.52783 3.25544 2.94633 2.30161 3.69127 1.59835C4.4362 0.895088 5.44656 0.5 6.50005 0.5C7.55355 0.5 8.5639 0.895088 9.30884 1.59835C10.0538 2.30161 10.4723 3.25544 10.4723 4.25V6.63636C10.4723 6.72591 10.4536 6.81458 10.4174 6.89731C10.3811 6.98004 10.3279 7.05522 10.2608 7.11853C10.1937 7.18185 10.1141 7.23207 10.0265 7.26633C9.93883 7.30059 9.8449 7.31821 9.75005 7.31818ZM3.97228 5.95455H9.02783V4.25C9.02783 3.6171 8.76151 3.01012 8.28746 2.56259C7.81341 2.11506 7.17046 1.86364 6.50005 1.86364C5.82965 1.86364 5.1867 2.11506 4.71265 2.56259C4.2386 3.01012 3.97228 3.6171 3.97228 4.25V5.95455Z" fill="#495057"/>
<path d="M6.49984 11.0689C7.09815 11.0689 7.58317 10.611 7.58317 10.0462C7.58317 9.48133 7.09815 9.02344 6.49984 9.02344C5.90153 9.02344 5.4165 9.48133 5.4165 10.0462C5.4165 10.611 5.90153 11.0689 6.49984 11.0689Z" fill="#495057"/>
</svg>
