<svg width="13" height="13" viewBox="0 0 13 13" fill="none" xmlns="http://www.w3.org/2000/svg">
<path fill-rule="evenodd" clip-rule="evenodd" d="M4.63683 0.750967C4.78915 0.91171 4.87471 1.12969 4.87471 1.35698C4.87471 1.58426 4.78915 1.80225 4.63683 1.96299L2.77374 3.92845H7.31243C8.82085 3.92845 10.2675 4.5606 11.3341 5.68584C12.4008 6.81105 13 8.33721 13 9.92853V11.6428C13 11.8702 12.9144 12.0882 12.762 12.2489C12.6097 12.4097 12.403 12.5 12.1875 12.5C11.972 12.5 11.7653 12.4097 11.613 12.2489C11.4605 12.0882 11.375 11.8702 11.375 11.6428V9.92853C11.375 8.79185 10.9469 7.7018 10.1851 6.89805C9.42317 6.0943 8.3899 5.64277 7.31243 5.64277H2.77374L4.63683 7.6082C4.71443 7.68732 4.77632 7.78186 4.81891 7.88644C4.86149 7.99101 4.8839 8.10355 4.88484 8.2173C4.88578 8.33113 4.86522 8.44402 4.82437 8.54936C4.78352 8.65471 4.72318 8.75036 4.64689 8.83085C4.57061 8.91134 4.47989 8.97503 4.38003 9.01814C4.28017 9.06117 4.17318 9.08286 4.06531 9.08191C3.95742 9.08088 3.8508 9.05723 3.75167 9.01231C3.65254 8.9674 3.56288 8.90208 3.48794 8.82022L0.237895 5.39162C0.0855735 5.23088 0 5.01289 0 4.78561C0 4.55832 0.0855735 4.34034 0.237895 4.1796L3.48794 0.750967C3.6403 0.590276 3.84693 0.5 4.06238 0.5C4.27783 0.5 4.48446 0.590276 4.63683 0.750967Z" fill="#495057"/>
</svg>
