<svg width="18" height="19" viewBox="0 0 18 19" fill="none" xmlns="http://www.w3.org/2000/svg">
<path d="M14.711 12.05C13.861 12.05 13.096 12.475 12.501 13.07L9.01604 11.37C9.10104 11.03 9.18604 10.69 9.18604 10.35C9.18604 9.84 9.10104 9.33 8.93104 8.82L11.991 6.865C12.586 7.46 13.351 7.8 14.286 7.8C16.156 7.8 17.686 6.27 17.686 4.4C17.686 2.53 16.156 1 14.286 1C12.416 1 10.886 2.53 10.886 4.4C10.886 4.74 10.971 5.08 11.056 5.42L7.99604 7.375C7.23104 6.61 6.12604 6.1 4.93604 6.1C2.55604 6.1 0.686035 7.97 0.686035 10.35C0.686035 12.73 2.55604 14.6 4.93604 14.6C6.29604 14.6 7.57104 13.92 8.33604 12.9L11.821 14.6C11.821 14.77 11.736 14.94 11.736 15.025C11.736 16.64 13.096 18 14.711 18C16.326 18 17.686 16.64 17.686 15.025C17.686 13.41 16.326 12.05 14.711 12.05ZM14.286 2.7C15.221 2.7 15.986 3.465 15.986 4.4C15.986 5.335 15.221 6.1 14.286 6.1C13.351 6.1 12.586 5.335 12.586 4.4C12.586 3.465 13.351 2.7 14.286 2.7ZM4.93604 12.9C3.49104 12.9 2.38604 11.795 2.38604 10.35C2.38604 8.905 3.49104 7.8 4.93604 7.8C6.38104 7.8 7.48604 8.905 7.48604 10.35C7.48604 11.795 6.38104 12.9 4.93604 12.9ZM14.711 16.3C14.031 16.3 13.436 15.705 13.436 15.025C13.436 14.345 14.031 13.75 14.711 13.75C15.391 13.75 15.986 14.345 15.986 15.025C15.986 15.705 15.391 16.3 14.711 16.3Z" fill="#ADB5BD" stroke="white" stroke-width="0.2"/>
</svg>
