<svg width="22" height="22" viewBox="0 0 22 22" fill="none" xmlns="http://www.w3.org/2000/svg">
<path d="M17.5 14C16.5 14 15.6 14.5 14.9 15.2L10.8 13.2C10.9 12.8 11 12.4 11 12C11 11.4 10.9 10.8 10.7 10.2L14.3 7.9C15 8.6 15.9 9 17 9C19.2 9 21 7.2 21 5C21 2.8 19.2 1 17 1C14.8 1 13 2.8 13 5C13 5.4 13.1 5.8 13.2 6.2L9.6 8.5C8.7 7.6 7.4 7 6 7C3.2 7 1 9.2 1 12C1 14.8 3.2 17 6 17C7.6 17 9.1 16.2 10 15L14.1 17C14.1 17.2 14 17.4 14 17.5C14 19.4 15.6 21 17.5 21C19.4 21 21 19.4 21 17.5C21 15.6 19.4 14 17.5 14ZM17 3C18.1 3 19 3.9 19 5C19 6.1 18.1 7 17 7C15.9 7 15 6.1 15 5C15 3.9 15.9 3 17 3ZM6 15C4.3 15 3 13.7 3 12C3 10.3 4.3 9 6 9C7.7 9 9 10.3 9 12C9 13.7 7.7 15 6 15ZM17.5 19C16.7 19 16 18.3 16 17.5C16 16.7 16.7 16 17.5 16C18.3 16 19 16.7 19 17.5C19 18.3 18.3 19 17.5 19Z" fill="#495057" stroke="white" stroke-width="0.2"/>
</svg>
