<svg width="15" height="15" viewBox="0 0 15 15" fill="none" xmlns="http://www.w3.org/2000/svg">
<path d="M3.6849 14.5627C3.17311 14.5627 2.73808 14.3835 2.37983 14.0253C2.02158 13.667 1.84245 13.232 1.84245 12.7203C1.84245 12.2085 2.02158 11.7734 2.37983 11.4152C2.73808 11.0569 3.17311 10.8778 3.6849 10.8778C3.8282 10.8778 3.96126 10.8931 4.08409 10.9239C4.20692 10.9545 4.32464 10.9955 4.43723 11.0467L5.31239 9.95658C5.02579 9.63924 4.82619 9.281 4.7136 8.88179C4.601 8.48258 4.57541 8.08341 4.63683 7.6842L3.39318 7.26965C3.21917 7.52555 2.9991 7.73026 2.73296 7.88383C2.46683 8.03735 2.16999 8.11414 1.84245 8.11414C1.33066 8.11414 0.895635 7.93498 0.537381 7.57674C0.179127 7.21846 0 6.78345 0 6.27169C0 5.75989 0.179127 5.32487 0.537381 4.96659C0.895635 4.60836 1.33066 4.42924 1.84245 4.42924C2.35424 4.42924 2.78926 4.60836 3.14752 4.96659C3.50577 5.32487 3.6849 5.75989 3.6849 6.27169V6.39453L4.92855 6.82438C5.13327 6.45589 5.40707 6.14372 5.74997 5.88782C6.09287 5.63192 6.47928 5.46818 6.90918 5.39652V4.06071C6.50998 3.94812 6.17988 3.73063 5.91886 3.40816C5.65785 3.08577 5.52734 2.70964 5.52734 2.2797C5.52734 1.7679 5.70647 1.33289 6.06473 0.97465C6.42298 0.616374 6.858 0.437256 7.36979 0.437256C7.88158 0.437256 8.31661 0.616374 8.67486 0.97465C9.03311 1.33289 9.21224 1.7679 9.21224 2.2797C9.21224 2.70964 9.07918 3.08577 8.81304 3.40816C8.54691 3.73063 8.21937 3.94812 7.83041 4.06071V5.39652C8.26031 5.46818 8.64671 5.63192 8.98961 5.88782C9.33251 6.14372 9.60632 6.45589 9.81104 6.82438L11.0547 6.39453V6.27169C11.0547 5.75989 11.2338 5.32487 11.5921 4.96659C11.9503 4.60836 12.3853 4.42924 12.8971 4.42924C13.4089 4.42924 13.844 4.60836 14.2022 4.96659C14.5605 5.32487 14.7396 5.75989 14.7396 6.27169C14.7396 6.78345 14.5605 7.21846 14.2022 7.57674C13.844 7.93498 13.4089 8.11414 12.8971 8.11414C12.5696 8.11414 12.2702 8.03735 11.9989 7.88383C11.7277 7.73026 11.5102 7.52555 11.3464 7.26965L10.1028 7.6842C10.1642 8.08341 10.1386 8.48002 10.026 8.8741C9.9134 9.26823 9.7138 9.62899 9.42719 9.95658L10.3024 11.0313C10.4149 10.9801 10.5327 10.9418 10.6555 10.9162C10.7783 10.8906 10.9114 10.8778 11.0547 10.8778C11.5665 10.8778 12.0015 11.0569 12.3598 11.4152C12.718 11.7734 12.8971 12.2085 12.8971 12.7203C12.8971 13.232 12.718 13.667 12.3598 14.0253C12.0015 14.3835 11.5665 14.5627 11.0547 14.5627C10.5429 14.5627 10.1079 14.3835 9.74962 14.0253C9.39137 13.667 9.21224 13.232 9.21224 12.7203C9.21224 12.5155 9.24551 12.3185 9.31204 12.1291C9.37857 11.9397 9.46814 11.7683 9.58073 11.6148L8.70557 10.5247C8.2859 10.7601 7.83808 10.8778 7.36212 10.8778C6.88615 10.8778 6.43833 10.7601 6.01866 10.5247L5.15886 11.6148C5.27145 11.7683 5.36101 11.9397 5.42755 12.1291C5.49408 12.3185 5.52734 12.5155 5.52734 12.7203C5.52734 13.232 5.34822 13.667 4.98996 14.0253C4.63171 14.3835 4.19669 14.5627 3.6849 14.5627Z" fill="#ADB5BD"/>
</svg>
