<svg width="5" height="17" viewBox="0 0 5 17" fill="none" xmlns="http://www.w3.org/2000/svg">
<path d="M2.09161 6.27484C0.941226 6.27484 0 7.21607 0 8.36646C0 9.51684 0.941226 10.4581 2.09161 10.4581C3.242 10.4581 4.18323 9.51684 4.18323 8.36646C4.18323 7.21607 3.242 6.27484 2.09161 6.27484ZM2.09161 0C0.941226 0 0 0.941226 0 2.09161C0 3.242 0.941226 4.18323 2.09161 4.18323C3.242 4.18323 4.18323 3.242 4.18323 2.09161C4.18323 0.941226 3.242 0 2.09161 0ZM2.09161 12.5497C0.941226 12.5497 0 13.4909 0 14.6413C0 15.7917 0.941226 16.7329 2.09161 16.7329C3.242 16.7329 4.18323 15.7917 4.18323 14.6413C4.18323 13.4909 3.242 12.5497 2.09161 12.5497Z" fill="#212529"/>
</svg>
