<svg width="4" height="15" viewBox="0 0 4 15" fill="none" xmlns="http://www.w3.org/2000/svg">
<path d="M1.66667 4.16732C2.58333 4.16732 3.33333 3.41732 3.33333 2.50065C3.33333 1.58398 2.58333 0.833984 1.66667 0.833984C0.75 0.833984 0 1.58398 0 2.50065C0 3.41732 0.75 4.16732 1.66667 4.16732ZM1.66667 5.83398C0.75 5.83398 0 6.58398 0 7.50065C0 8.41732 0.75 9.16732 1.66667 9.16732C2.58333 9.16732 3.33333 8.41732 3.33333 7.50065C3.33333 6.58398 2.58333 5.83398 1.66667 5.83398ZM1.66667 10.834C0.75 10.834 0 11.584 0 12.5007C0 13.4173 0.75 14.1673 1.66667 14.1673C2.58333 14.1673 3.33333 13.4173 3.33333 12.5007C3.33333 11.584 2.58333 10.834 1.66667 10.834Z" fill="#343A40"/>
</svg>
