<svg width="84" height="83" viewBox="0 0 84 83" fill="none" xmlns="http://www.w3.org/2000/svg">
<g filter="url(#filter0_d_1592_103268)">
<rect x="15.9688" y="8" width="52.0616" height="52.0616" rx="9.46574" fill="#22B573"/>
<path d="M47.3921 32.5737C47.3921 32.0195 46.9429 31.5703 46.3887 31.5703H36.0541C35.5 31.5703 35.0508 32.0195 35.0508 32.5737C35.0508 33.1278 35.5 33.577 36.0541 33.577H46.3887C46.9429 33.577 47.3921 33.1278 47.3921 32.5737Z" fill="white"/>
<path d="M36.0541 35.5859C35.5 35.5859 35.0508 36.0351 35.0508 36.5893C35.0508 37.1434 35.5 37.5927 36.0541 37.5927H42.3307C42.8848 37.5927 43.3341 37.1434 43.3341 36.5893C43.3341 36.0351 42.8848 35.5859 42.3307 35.5859H36.0541Z" fill="white"/>
<path d="M38.4121 45.2183H35.0564C33.9499 45.2183 33.0497 44.3181 33.0497 43.2116V25.5525C33.0497 24.446 33.9499 23.5458 35.0564 23.5458H47.3921C48.4986 23.5458 49.3988 24.446 49.3988 25.5525V31.7231C49.3988 32.2773 49.848 32.7265 50.4022 32.7265C50.9564 32.7265 51.4056 32.2773 51.4056 31.7231V25.5525C51.4056 23.3395 49.6051 21.5391 47.3921 21.5391H35.0564C32.8434 21.5391 31.043 23.3395 31.043 25.5525V43.2116C31.043 45.4246 32.8434 47.225 35.0564 47.225H38.4121C38.9662 47.225 39.4154 46.7758 39.4154 46.2217C39.4154 45.6675 38.9662 45.2183 38.4121 45.2183Z" fill="white"/>
<path d="M53.1829 36.0717C52.0092 34.8981 50.0996 34.8981 48.9268 36.0709L43.4182 41.5673C43.3012 41.6841 43.2149 41.8279 43.1668 41.986L41.9672 45.9355C41.8608 46.2856 41.9535 46.6658 42.209 46.9278C42.4005 47.124 42.6605 47.2305 42.9273 47.2305C43.0165 47.2305 43.1066 47.2185 43.1951 47.194L47.2449 46.0722C47.4115 46.0261 47.5634 45.9376 47.6859 45.8154L53.1829 40.3287C54.3565 39.1551 54.3565 37.2455 53.1829 36.0717ZM46.4549 44.2088L44.4175 44.7732L45.0138 42.8101L48.7307 39.1015L50.1499 40.5207L46.4549 44.2088ZM51.7647 38.9091L51.5703 39.1031L50.1513 37.6841L50.345 37.4908C50.7362 37.0996 51.3727 37.0996 51.764 37.4908C52.1552 37.882 52.1552 38.5185 51.7647 38.9091Z" fill="white"/>
<path d="M46.3887 27.5586H36.0541C35.5 27.5586 35.0508 28.0078 35.0508 28.562C35.0508 29.1161 35.5 29.5653 36.0541 29.5653H46.3887C46.9429 29.5653 47.3921 29.1161 47.3921 28.562C47.3921 28.0078 46.9429 27.5586 46.3887 27.5586Z" fill="white"/>
</g>
<defs>
<filter id="filter0_d_1592_103268" x="0.82357" y="0.42741" width="82.3529" height="82.3529" filterUnits="userSpaceOnUse" color-interpolation-filters="sRGB">
<feFlood flood-opacity="0" result="BackgroundImageFix"/>
<feColorMatrix in="SourceAlpha" type="matrix" values="0 0 0 0 0 0 0 0 0 0 0 0 0 0 0 0 0 0 127 0" result="hardAlpha"/>
<feOffset dy="7.57259"/>
<feGaussianBlur stdDeviation="7.57259"/>
<feColorMatrix type="matrix" values="0 0 0 0 0.133333 0 0 0 0 0.709804 0 0 0 0 0.45098 0 0 0 0.15 0"/>
<feBlend mode="normal" in2="BackgroundImageFix" result="effect1_dropShadow_1592_103268"/>
<feBlend mode="normal" in="SourceGraphic" in2="effect1_dropShadow_1592_103268" result="shape"/>
</filter>
</defs>
</svg>
