<svg width="27" height="31" viewBox="0 0 27 31" fill="none" xmlns="http://www.w3.org/2000/svg">
<path d="M19.1765 12.9464C19.1765 12.2964 18.6496 11.7695 17.9997 11.7695H5.87803C5.22805 11.7695 4.70117 12.2964 4.70117 12.9464C4.70117 13.5964 5.22805 14.1232 5.87803 14.1232H17.9997C18.6496 14.1232 19.1765 13.5964 19.1765 12.9464Z" fill="#D63384"/>
<path d="M5.87803 16.4746C5.22805 16.4746 4.70117 17.0015 4.70117 17.6515C4.70117 18.3014 5.22805 18.8283 5.87803 18.8283H13.2399C13.8899 18.8283 14.4168 18.3014 14.4168 17.6515C14.4168 17.0015 13.8899 16.4746 13.2399 16.4746H5.87803Z" fill="#D63384"/>
<path d="M8.64337 27.7738H4.70743C3.40959 27.7738 2.35371 26.718 2.35371 25.4201V4.70743C2.35371 3.40959 3.40959 2.35372 4.70743 2.35372H19.1762C20.4741 2.35372 21.53 3.40959 21.53 4.70743V11.9451C21.53 12.5951 22.0568 13.122 22.7068 13.122C23.3568 13.122 23.8837 12.5951 23.8837 11.9451V4.70743C23.8837 2.11175 21.7719 0 19.1762 0H4.70743C2.11175 0 0 2.11175 0 4.70743V25.4201C0 28.0158 2.11175 30.1276 4.70743 30.1276H8.64337C9.29335 30.1276 9.82023 29.6007 9.82023 28.9507C9.82023 28.3007 9.29335 27.7738 8.64337 27.7738Z" fill="#D63384"/>
<path d="M25.9676 17.0462C24.5911 15.6697 22.3513 15.6696 20.9756 17.0453L14.5145 23.4921C14.3772 23.6291 14.276 23.7977 14.2197 23.9832L12.8126 28.6156C12.6878 29.0263 12.7965 29.4723 13.0962 29.7795C13.3208 30.0096 13.6258 30.1345 13.9387 30.1345C14.0434 30.1345 14.1491 30.1205 14.2528 30.0918L19.0029 28.776C19.1984 28.7218 19.3765 28.6181 19.5201 28.4748L25.9677 22.0393C27.3443 20.6627 27.3443 18.4229 25.9676 17.0462ZM18.0763 26.5903L15.6866 27.2523L16.386 24.9498L20.7456 20.5999L22.4102 22.2645L18.0763 26.5903ZM24.3042 20.3743L24.0762 20.6018L22.4118 18.9375L22.6391 18.7107C23.0979 18.2518 23.8445 18.2518 24.3034 18.7107C24.7623 19.1695 24.7622 19.9161 24.3042 20.3743Z" fill="#D63384"/>
<path d="M17.9997 7.05859H5.87803C5.22805 7.05859 4.70117 7.58547 4.70117 8.23545C4.70117 8.88543 5.22805 9.41231 5.87803 9.41231H17.9997C18.6496 9.41231 19.1765 8.88543 19.1765 8.23545C19.1765 7.58547 18.6496 7.05859 17.9997 7.05859Z" fill="#D63384"/>
</svg>
