<svg width="24" height="27" viewBox="0 0 24 27" fill="none" xmlns="http://www.w3.org/2000/svg">
<path d="M16.3921 11.5737C16.3921 11.0195 15.9429 10.5703 15.3887 10.5703H5.05414C4.49998 10.5703 4.05078 11.0195 4.05078 11.5737C4.05078 12.1278 4.49998 12.577 5.05414 12.577H15.3887C15.9429 12.577 16.3921 12.1278 16.3921 11.5737Z" fill="white"/>
<path d="M5.05414 14.5859C4.49998 14.5859 4.05078 15.0351 4.05078 15.5893C4.05078 16.1434 4.49998 16.5927 5.05414 16.5927H11.3307C11.8848 16.5927 12.3341 16.1434 12.3341 15.5893C12.3341 15.0351 11.8848 14.5859 11.3307 14.5859H5.05414Z" fill="white"/>
<path d="M7.41208 24.2183H4.0564C2.9499 24.2183 2.04968 23.3181 2.04968 22.2116V4.55249C2.04968 3.44599 2.9499 2.54578 4.0564 2.54578H16.3921C17.4986 2.54578 18.3988 3.44599 18.3988 4.55249V10.7231C18.3988 11.2773 18.848 11.7265 19.4022 11.7265C19.9564 11.7265 20.4056 11.2773 20.4056 10.7231V4.55249C20.4056 2.33949 18.6051 0.539062 16.3921 0.539062H4.0564C1.84339 0.539062 0.0429688 2.33949 0.0429688 4.55249V22.2116C0.0429688 24.4246 1.84339 26.225 4.0564 26.225H7.41208C7.96623 26.225 8.41544 25.7758 8.41544 25.2217C8.41544 24.6675 7.96623 24.2183 7.41208 24.2183Z" fill="white"/>
<path d="M22.1829 15.0717C21.0092 13.8981 19.0996 13.8981 17.9268 15.0709L12.4182 20.5673C12.3012 20.6841 12.2149 20.8279 12.1668 20.986L10.9672 24.9355C10.8608 25.2856 10.9535 25.6658 11.209 25.9278C11.4005 26.124 11.6605 26.2305 11.9273 26.2305C12.0165 26.2305 12.1066 26.2185 12.1951 26.194L16.2449 25.0722C16.4115 25.0261 16.5634 24.9376 16.6859 24.8154L22.1829 19.3287C23.3565 18.1551 23.3565 16.2455 22.1829 15.0717ZM15.4549 23.2088L13.4175 23.7732L14.0138 21.8101L17.7307 18.1015L19.1499 19.5207L15.4549 23.2088ZM20.7647 17.9091L20.5703 18.1031L19.1513 16.6841L19.345 16.4908C19.7362 16.0996 20.3727 16.0996 20.764 16.4908C21.1552 16.882 21.1552 17.5185 20.7647 17.9091Z" fill="white"/>
<path d="M15.3887 6.55859H5.05414C4.49998 6.55859 4.05078 7.0078 4.05078 7.56195C4.05078 8.11611 4.49998 8.56531 5.05414 8.56531H15.3887C15.9429 8.56531 16.3921 8.11611 16.3921 7.56195C16.3921 7.0078 15.9429 6.55859 15.3887 6.55859Z" fill="white"/>
</svg>
