<svg width="21" height="22" viewBox="0 0 21 22" fill="none" xmlns="http://www.w3.org/2000/svg">
<path d="M10.5325 11.7873C10.4002 11.7875 10.2702 11.7516 10.1567 11.6835L5.2849 8.76046C5.1186 8.66078 4.99871 8.49911 4.9516 8.31103C4.90449 8.12295 4.93402 7.92386 5.0337 7.75756C5.13339 7.59126 5.29505 7.47136 5.48313 7.42425C5.67121 7.37714 5.8703 7.40668 6.0366 7.50636L10.5325 10.2039L15.0285 7.50636C15.1948 7.40668 15.3939 7.37714 15.582 7.42425C15.77 7.47136 15.9317 7.59126 16.0314 7.75756C16.1311 7.92386 16.1606 8.12295 16.1135 8.31103C16.0664 8.49911 15.9465 8.66078 15.7802 8.76046L10.9084 11.6835C10.7949 11.7516 10.6649 11.7875 10.5325 11.7873Z" fill="#22B573" stroke="#22B573" stroke-width="0.3"/>
<path d="M10.5316 16.6615C10.3378 16.6614 10.1519 16.5844 10.0149 16.4474C9.87784 16.3103 9.80083 16.1245 9.80078 15.9307V11.0589C9.80078 10.8651 9.87777 10.6792 10.0148 10.5422C10.1519 10.4051 10.3377 10.3281 10.5316 10.3281C10.7254 10.3281 10.9112 10.4051 11.0483 10.5422C11.1853 10.6792 11.2623 10.8651 11.2623 11.0589V15.9307C11.2623 16.1245 11.1853 16.3103 11.0482 16.4474C10.9112 16.5844 10.7253 16.6614 10.5316 16.6615Z" fill="#22B573" stroke="#22B573" stroke-width="0.3"/>
<path d="M10.5312 21.4404C10.2925 21.4406 10.0563 21.3907 9.83806 21.2938L2.04367 17.8293C1.74249 17.6953 1.4866 17.4768 1.30693 17.2004C1.12726 16.9239 1.03151 16.6014 1.03125 16.2717V5.84492C1.03151 5.51517 1.12732 5.19257 1.30708 4.91613C1.48684 4.63969 1.74285 4.42127 2.04414 4.28728L9.83854 0.82279C10.0567 0.725863 10.2928 0.675781 10.5315 0.675781C10.7702 0.675781 11.0063 0.725863 11.2244 0.82279L19.0188 4.28728C19.32 4.42138 19.5759 4.63984 19.7556 4.91626C19.9352 5.19269 20.031 5.51524 20.0312 5.84492V16.2717C20.031 16.6015 19.9352 16.9241 19.7554 17.2005C19.5757 17.4769 19.3196 17.6954 19.0184 17.8293L11.224 21.2938C11.0059 21.3907 10.7699 21.4407 10.5312 21.4404ZM10.5312 2.13779C10.4973 2.13762 10.4637 2.14476 10.4328 2.15872L2.63742 5.62322C2.59441 5.64217 2.55784 5.67321 2.53216 5.71257C2.50647 5.75194 2.4928 5.79792 2.49279 5.84492V16.2717C2.49279 16.3186 2.50642 16.3646 2.532 16.4039C2.55759 16.4433 2.59404 16.4744 2.63694 16.4934L10.4323 19.9579C10.4633 19.972 10.497 19.9793 10.531 19.9793C10.5651 19.9793 10.5987 19.972 10.6297 19.9579L18.4251 16.4934C18.4681 16.4745 18.5047 16.4434 18.5303 16.4041C18.556 16.3647 18.5697 16.3187 18.5697 16.2717V5.84492C18.5697 5.79798 18.5561 5.75205 18.5305 5.71269C18.5049 5.67334 18.4684 5.64226 18.4255 5.62322L10.6302 2.15872C10.5991 2.14475 10.5654 2.13762 10.5312 2.13779Z" fill="#212529" stroke="#212529" stroke-width="0.5"/>
</svg>
