<svg width="194" height="88" viewBox="0 0 194 88" fill="none" xmlns="http://www.w3.org/2000/svg">
<g filter="url(#filter0_d_8119_106295)">
<path d="M162 14L156 8L150 14H162Z" fill="white"/>
<path d="M162 14L156 8L150 14H162Z" fill="#CED4DA"/>
<path d="M161.5 15L156 9.5L150.5 15H161.5Z" fill="white"/>
<rect x="16.5" y="14.5" width="161" height="49" rx="7.5" fill="white"/>
<rect x="16.5" y="14.5" width="161" height="49" rx="7.5" stroke="#CED4DA"/>
<rect width="160" height="32" transform="translate(17 23)" fill="white" fill-opacity="0.01"/>
<g clip-path="url(#clip0_8119_106295)">
<rect width="49" height="24" transform="translate(33 27)" fill="white" fill-opacity="0.01"/>
<path d="M43.704 39.176C43.704 40.456 43.464 41.528 42.984 42.392C42.5147 43.256 41.8373 43.9067 40.952 44.344C40.0667 44.7813 38.9947 45 37.736 45H34.552V33.576H38.072C39.224 33.576 40.2213 33.7893 41.064 34.216C41.9067 34.6427 42.5573 35.272 43.016 36.104C43.4747 36.9253 43.704 37.9493 43.704 39.176ZM42.184 39.224C42.184 38.2107 42.0133 37.3787 41.672 36.728C41.3413 36.0773 40.8507 35.5973 40.2 35.288C39.56 34.968 38.7813 34.808 37.864 34.808H35.992V43.768H37.544C39.0907 43.768 40.248 43.3893 41.016 42.632C41.7947 41.864 42.184 40.728 42.184 39.224ZM49.3595 36.264C50.0955 36.264 50.7248 36.424 51.2475 36.744C51.7808 37.064 52.1862 37.5173 52.4635 38.104C52.7515 38.68 52.8955 39.3573 52.8955 40.136V40.984H47.0235C47.0448 41.9547 47.2902 42.696 47.7595 43.208C48.2395 43.7093 48.9062 43.96 49.7595 43.96C50.3035 43.96 50.7835 43.912 51.1995 43.816C51.6262 43.7093 52.0635 43.56 52.5115 43.368V44.6C52.0742 44.792 51.6422 44.9307 51.2155 45.016C50.7888 45.112 50.2822 45.16 49.6955 45.16C48.8848 45.16 48.1648 44.9947 47.5355 44.664C46.9168 44.3333 46.4315 43.8427 46.0795 43.192C45.7382 42.5307 45.5675 41.7253 45.5675 40.776C45.5675 39.8373 45.7222 39.032 46.0315 38.36C46.3515 37.688 46.7942 37.1707 47.3595 36.808C47.9355 36.4453 48.6022 36.264 49.3595 36.264ZM49.3435 37.416C48.6715 37.416 48.1382 37.6347 47.7435 38.072C47.3595 38.4987 47.1302 39.096 47.0555 39.864H51.4235C51.4235 39.3733 51.3488 38.9467 51.1995 38.584C51.0502 38.2213 50.8208 37.9387 50.5115 37.736C50.2128 37.5227 49.8235 37.416 49.3435 37.416ZM56.4868 45H55.0788V32.84H56.4868V45ZM62.5158 36.264C63.2518 36.264 63.8811 36.424 64.4038 36.744C64.9371 37.064 65.3424 37.5173 65.6198 38.104C65.9078 38.68 66.0518 39.3573 66.0518 40.136V40.984H60.1798C60.2011 41.9547 60.4464 42.696 60.9158 43.208C61.3958 43.7093 62.0624 43.96 62.9158 43.96C63.4598 43.96 63.9398 43.912 64.3558 43.816C64.7824 43.7093 65.2198 43.56 65.6678 43.368V44.6C65.2304 44.792 64.7984 44.9307 64.3718 45.016C63.9451 45.112 63.4384 45.16 62.8518 45.16C62.0411 45.16 61.3211 44.9947 60.6918 44.664C60.0731 44.3333 59.5878 43.8427 59.2358 43.192C58.8944 42.5307 58.7238 41.7253 58.7238 40.776C58.7238 39.8373 58.8784 39.032 59.1878 38.36C59.5078 37.688 59.9504 37.1707 60.5158 36.808C61.0918 36.4453 61.7584 36.264 62.5158 36.264ZM62.4998 37.416C61.8278 37.416 61.2944 37.6347 60.8998 38.072C60.5158 38.4987 60.2864 39.096 60.2118 39.864H64.5798C64.5798 39.3733 64.5051 38.9467 64.3558 38.584C64.2064 38.2213 63.9771 37.9387 63.6678 37.736C63.3691 37.5227 62.9798 37.416 62.4998 37.416ZM71.099 44.008C71.3123 44.008 71.531 43.992 71.755 43.96C71.979 43.9173 72.1603 43.8747 72.299 43.832V44.904C72.1497 44.9787 71.9363 45.0373 71.659 45.08C71.3817 45.1333 71.115 45.16 70.859 45.16C70.411 45.16 69.995 45.0853 69.611 44.936C69.2377 44.776 68.9337 44.504 68.699 44.12C68.4643 43.736 68.347 43.1973 68.347 42.504V37.512H67.131V36.84L68.363 36.28L68.923 34.456H69.755V36.424H72.235V37.512H69.755V42.472C69.755 42.9947 69.8777 43.384 70.123 43.64C70.379 43.8853 70.7043 44.008 71.099 44.008ZM77.3283 36.264C78.0643 36.264 78.6936 36.424 79.2163 36.744C79.7496 37.064 80.1549 37.5173 80.4323 38.104C80.7203 38.68 80.8643 39.3573 80.8643 40.136V40.984H74.9923C75.0136 41.9547 75.2589 42.696 75.7283 43.208C76.2083 43.7093 76.8749 43.96 77.7283 43.96C78.2723 43.96 78.7523 43.912 79.1683 43.816C79.5949 43.7093 80.0323 43.56 80.4803 43.368V44.6C80.0429 44.792 79.6109 44.9307 79.1843 45.016C78.7576 45.112 78.2509 45.16 77.6643 45.16C76.8536 45.16 76.1336 44.9947 75.5043 44.664C74.8856 44.3333 74.4003 43.8427 74.0483 43.192C73.7069 42.5307 73.5363 41.7253 73.5363 40.776C73.5363 39.8373 73.6909 39.032 74.0003 38.36C74.3203 37.688 74.7629 37.1707 75.3283 36.808C75.9043 36.4453 76.5709 36.264 77.3283 36.264ZM77.3123 37.416C76.6403 37.416 76.1069 37.6347 75.7123 38.072C75.3283 38.4987 75.0989 39.096 75.0243 39.864H79.3923C79.3923 39.3733 79.3176 38.9467 79.1683 38.584C79.0189 38.2213 78.7896 37.9387 78.4803 37.736C78.1816 37.5227 77.7923 37.416 77.3123 37.416Z" fill="#DC3545"/>
</g>
</g>
<defs>
<filter id="filter0_d_8119_106295" x="0" y="0" width="194" height="88" filterUnits="userSpaceOnUse" color-interpolation-filters="sRGB">
<feFlood flood-opacity="0" result="BackgroundImageFix"/>
<feColorMatrix in="SourceAlpha" type="matrix" values="0 0 0 0 0 0 0 0 0 0 0 0 0 0 0 0 0 0 127 0" result="hardAlpha"/>
<feOffset dy="8"/>
<feGaussianBlur stdDeviation="8"/>
<feColorMatrix type="matrix" values="0 0 0 0 0 0 0 0 0 0 0 0 0 0 0 0 0 0 0.15 0"/>
<feBlend mode="normal" in2="BackgroundImageFix" result="effect1_dropShadow_8119_106295"/>
<feBlend mode="normal" in="SourceGraphic" in2="effect1_dropShadow_8119_106295" result="shape"/>
</filter>
<clipPath id="clip0_8119_106295">
<rect width="49" height="24" fill="white" transform="translate(33 27)"/>
</clipPath>
</defs>
</svg>
