<svg width="25" height="25" viewBox="0 0 25 25" fill="none" xmlns="http://www.w3.org/2000/svg">
<g clip-path="url(#clip0_8118_104767)">
<path d="M12.4993 4.16699C7.29102 4.16699 2.8431 7.40658 1.04102 11.9795C2.8431 16.5524 7.29102 19.792 12.4993 19.792C17.7077 19.792 22.1556 16.5524 23.9577 11.9795C22.1556 7.40658 17.7077 4.16699 12.4993 4.16699ZM12.4993 17.1878C9.62435 17.1878 7.29102 14.8545 7.29102 11.9795C7.29102 9.10449 9.62435 6.77116 12.4993 6.77116C15.3743 6.77116 17.7077 9.10449 17.7077 11.9795C17.7077 14.8545 15.3743 17.1878 12.4993 17.1878ZM12.4993 8.85449C10.7702 8.85449 9.37435 10.2503 9.37435 11.9795C9.37435 13.7087 10.7702 15.1045 12.4993 15.1045C14.2285 15.1045 15.6243 13.7087 15.6243 11.9795C15.6243 10.2503 14.2285 8.85449 12.4993 8.85449Z" fill="#495057"/>
</g>
<defs>
<clipPath id="clip0_8118_104767">
<rect width="25" height="25" fill="white"/>
</clipPath>
</defs>
</svg>
