<svg width="23" height="21" viewBox="0 0 23 21" fill="none" xmlns="http://www.w3.org/2000/svg">
<path d="M7.97674 10.5593C7.41816 10.5593 6.87212 10.3937 6.40767 10.0833C5.94323 9.773 5.58124 9.33191 5.36748 8.81585C5.15371 8.29978 5.09778 7.73192 5.20676 7.18407C5.31573 6.63622 5.58472 6.13298 5.9797 5.73801C6.37468 5.34303 6.87791 5.07404 7.42576 4.96507C7.97361 4.85609 8.54148 4.91202 9.05754 5.12578C9.5736 5.33955 10.0147 5.70154 10.325 6.16598C10.6354 6.63043 10.801 7.17647 10.801 7.73505C10.801 8.48409 10.5034 9.20245 9.97379 9.7321C9.44414 10.2618 8.72578 10.5593 7.97674 10.5593ZM7.97674 6.67596C7.76728 6.67596 7.56251 6.73807 7.38834 6.85445C7.21418 6.97082 7.07843 7.13623 6.99827 7.32976C6.91811 7.52328 6.89713 7.73623 6.938 7.94167C6.97887 8.14712 7.07973 8.33583 7.22785 8.48395C7.37597 8.63206 7.56468 8.73293 7.77013 8.7738C7.97557 8.81466 8.18852 8.79369 8.38204 8.71353C8.57557 8.63337 8.74098 8.49762 8.85735 8.32345C8.97373 8.14929 9.03584 7.94452 9.03584 7.73505C9.03584 7.45416 8.92426 7.18478 8.72564 6.98616C8.52702 6.78754 8.25763 6.67596 7.97674 6.67596ZM11.5 16.0901C11.2659 16.0901 11.0414 15.9971 10.8759 15.8316C10.7104 15.6661 10.6174 15.4416 10.6174 15.2076V14.8545C10.6192 14.6138 10.57 14.3754 10.473 14.1551C10.376 13.9348 10.2334 13.7375 10.0546 13.5763C9.87583 13.4151 9.66492 13.2936 9.43577 13.2198C9.20662 13.146 8.96443 13.1216 8.72517 13.1482H7.2142C6.97494 13.1216 6.73275 13.146 6.5036 13.2198C6.27445 13.2936 6.06354 13.4151 5.88476 13.5763C5.70597 13.7375 5.56338 13.9348 5.46637 14.1551C5.36936 14.3754 5.32014 14.6138 5.32195 14.8545V15.2076C5.32195 15.4416 5.22896 15.6661 5.06345 15.8316C4.89793 15.9971 4.67344 16.0901 4.43937 16.0901C4.20529 16.0901 3.98081 15.9971 3.81529 15.8316C3.64978 15.6661 3.55679 15.4416 3.55679 15.2076V14.8545C3.55251 14.3815 3.64564 13.9127 3.83037 13.4773C4.0151 13.0418 4.28748 12.649 4.63056 12.3234C4.97363 11.9978 5.38006 11.7462 5.82455 11.5845C6.26904 11.4227 6.74207 11.3541 7.2142 11.383H8.72517C9.1973 11.3541 9.67033 11.4227 10.1148 11.5845C10.5593 11.7462 10.9657 11.9978 11.3088 12.3234C11.6519 12.649 11.9243 13.0418 12.109 13.4773C12.2937 13.9127 12.3869 14.3815 12.3826 14.8545V15.2076C12.3826 15.4416 12.2896 15.6661 12.1241 15.8316C11.9586 15.9971 11.7341 16.0901 11.5 16.0901ZM18.5606 20.2088H4.43937C3.84315 20.2779 3.23902 20.2113 2.67217 20.014C2.10532 19.8167 1.59043 19.4937 1.16601 19.0693C0.741599 18.6449 0.418644 18.13 0.22131 17.5631C0.0239755 16.9963 -0.0426305 16.3922 0.0264743 15.7959V5.20499C-0.0426305 4.60877 0.0239755 4.00464 0.22131 3.43779C0.418644 2.87094 0.741599 2.35605 1.16601 1.93164C1.59043 1.50722 2.10532 1.18427 2.67217 0.986935C3.23902 0.7896 3.84315 0.722994 4.43937 0.792099H18.5606C19.1569 0.722994 19.761 0.7896 20.3278 0.986935C20.8947 1.18427 21.4096 1.50722 21.834 1.93164C22.2584 2.35605 22.5814 2.87094 22.7787 3.43779C22.976 4.00464 23.0426 4.60877 22.9735 5.20499V15.7959C23.0426 16.3922 22.976 16.9963 22.7787 17.5631C22.5814 18.13 22.2584 18.6449 21.834 19.0693C21.4096 19.4937 20.8947 19.8167 20.3278 20.014C19.761 20.2113 19.1569 20.2779 18.5606 20.2088ZM4.43937 2.55726C2.5836 2.55726 1.79163 3.34922 1.79163 5.20499V15.7959C1.79163 17.6517 2.5836 18.4437 4.43937 18.4437H18.5606C20.4164 18.4437 21.2084 17.6517 21.2084 15.7959V5.20499C21.2084 3.34922 20.4164 2.55726 18.5606 2.55726H4.43937ZM19.4432 8.07396C19.4432 7.83989 19.3502 7.6154 19.1847 7.44989C19.0192 7.28437 18.7947 7.19138 18.5606 7.19138H13.8535C13.6195 7.19138 13.395 7.28437 13.2295 7.44989C13.064 7.6154 12.971 7.83989 12.971 8.07396C12.971 8.30804 13.064 8.53253 13.2295 8.69804C13.395 8.86356 13.6195 8.95654 13.8535 8.95654H18.5606C18.7947 8.95654 19.0192 8.86356 19.1847 8.69804C19.3502 8.53253 19.4432 8.30804 19.4432 8.07396ZM19.3844 12.854C19.3844 12.6199 19.2914 12.3954 19.1259 12.2299C18.9604 12.0644 18.7359 11.9714 18.5018 11.9714H14.9715C14.7374 11.9714 14.5129 12.0644 14.3474 12.2299C14.1819 12.3954 14.0889 12.6199 14.0889 12.854C14.0889 13.0881 14.1819 13.3126 14.3474 13.4781C14.5129 13.6436 14.7374 13.7366 14.9715 13.7366H18.5018C18.7359 13.7366 18.9604 13.6436 19.1259 13.4781C19.2914 13.3126 19.3844 13.0881 19.3844 12.854Z" fill="#6C757D"/>
</svg>
