<svg width="304" height="203" viewBox="0 0 304 203" fill="none" xmlns="http://www.w3.org/2000/svg">
<path d="M64.5088 119.715C63.26 142.725 108.246 189.513 163.695 172.195C189.484 164.14 187.299 150.77 206.909 133.15C218.598 122.649 235.392 114.707 240.063 99.4424C244.098 86.2664 241.623 72.1041 234.628 62.8922C218.895 42.1756 187.133 27.9896 155.837 60.6304C124.542 93.2712 67.7359 60.3703 64.5088 119.715Z" fill="url(#paint0_linear_8910_63030)"/>
<path d="M76.8409 68.9929C81.2165 76.8023 90.7999 77.8754 106.153 76.3913C117.7 75.2732 128.229 74.4078 139.776 68.112C147.859 63.7084 154.257 57.7506 158.926 51.9642C163.986 45.6957 171.049 38.5412 167.587 31.4337C162.829 21.6699 135.313 13.447 108.593 26.8943C79.2425 41.6707 72.5602 61.3605 76.8409 68.9929Z" fill="url(#paint1_linear_8910_63030)"/>
<path d="M188.215 164.502C198.409 150.241 208.849 135.084 222.517 127.618C236.615 119.914 239.215 124.662 240.191 132.211C241.167 139.76 236.817 157.646 217.577 167.822C198.332 178.002 178.676 177.849 188.215 164.502Z" fill="url(#paint2_linear_8910_63030)"/>
<path d="M211.744 102.886C211.744 69.7874 184.912 42.9561 151.814 42.9561C118.716 42.9561 91.8843 69.7878 91.8843 102.886C91.8843 135.984 118.716 162.816 151.814 162.816C184.912 162.816 211.744 135.984 211.744 102.886Z" fill="#22B573"/>
<path d="M151.814 154.525C180.334 154.525 203.453 131.405 203.453 102.885C203.453 74.365 180.334 51.2451 151.814 51.2451C123.294 51.2451 100.174 74.365 100.174 102.885C100.174 131.405 123.294 154.525 151.814 154.525Z" fill="white"/>
<path d="M150.311 63.8655C150.311 64.0675 150.443 64.1969 150.529 64.2597C150.622 64.3279 150.736 64.3752 150.846 64.409C151.069 64.4779 151.358 64.5154 151.662 64.5154C151.965 64.5154 152.254 64.4776 152.477 64.4087C152.587 64.3749 152.7 64.3276 152.794 64.26C152.879 64.1979 153.013 64.0689 153.013 63.8655V55.7075C153.013 55.5055 152.882 55.3761 152.795 55.3133C152.702 55.2451 152.588 55.1978 152.479 55.164C152.255 55.0951 151.966 55.0576 151.662 55.0576C151.358 55.0576 151.069 55.0951 150.846 55.164C150.736 55.1978 150.622 55.2451 150.529 55.3133C150.443 55.3761 150.311 55.5055 150.311 55.7075V63.8655ZM150.311 149.001C150.311 149.209 150.453 149.337 150.536 149.394C150.629 149.459 150.742 149.503 150.85 149.535C151.072 149.6 151.359 149.635 151.662 149.635C151.964 149.635 152.25 149.6 152.472 149.535C152.584 149.505 152.69 149.458 152.787 149.395C152.87 149.338 153.013 149.21 153.013 149.001V140.812C153.013 140.604 152.872 140.476 152.788 140.419C152.692 140.356 152.585 140.308 152.474 140.278C152.252 140.213 151.965 140.178 151.662 140.178C151.359 140.178 151.072 140.213 150.85 140.278C150.739 140.308 150.633 140.356 150.536 140.419C150.453 140.476 150.311 140.604 150.311 140.812V149.001ZM104.978 102.705H114.023C114.413 102.705 114.674 102.367 114.674 102.022C114.674 101.676 114.413 101.339 114.023 101.339H104.978C104.587 101.339 104.327 101.676 104.327 102.022C104.327 102.367 104.587 102.705 104.978 102.705Z" fill="#E1E4E5" stroke="#E1E4E5" stroke-width="2"/>
<path d="M105.028 103.361H114.19C114.39 103.361 114.52 103.231 114.585 103.144C114.654 103.051 114.702 102.937 114.737 102.827C114.806 102.603 114.845 102.314 114.845 102.009C114.845 101.705 114.806 101.416 114.737 101.192C114.702 101.082 114.654 100.968 114.585 100.874C114.52 100.787 114.39 100.658 114.19 100.658H105.028C104.828 100.658 104.698 100.787 104.633 100.874C104.564 100.968 104.516 101.082 104.482 101.192C104.412 101.416 104.374 101.705 104.374 102.009C104.374 102.314 104.412 102.603 104.482 102.827C104.516 102.937 104.564 103.051 104.633 103.144C104.698 103.231 104.828 103.361 105.028 103.361ZM190.484 103.361H198.298C198.5 103.361 198.629 103.23 198.693 103.144C198.762 103.05 198.81 102.937 198.844 102.826C198.913 102.603 198.951 102.314 198.951 102.009C198.951 101.705 198.913 101.416 198.844 101.192C198.81 101.082 198.762 100.969 198.693 100.875C198.629 100.788 198.5 100.658 198.298 100.658H190.484C190.283 100.658 190.154 100.788 190.089 100.875C190.02 100.969 189.973 101.082 189.939 101.192C189.869 101.416 189.831 101.705 189.831 102.009C189.831 102.314 189.869 102.603 189.939 102.826C189.973 102.937 190.02 103.05 190.089 103.144C190.154 103.23 190.283 103.361 190.484 103.361ZM174.628 143.128L174.627 143.127L170.727 135.82V135.82C170.566 135.521 170.652 135.126 170.954 134.939C171.272 134.74 171.666 134.87 171.833 135.183L174.628 143.128ZM174.628 143.128C174.739 143.334 174.948 143.465 175.18 143.465C175.293 143.465 175.404 143.433 175.503 143.373L175.506 143.371C175.808 143.183 175.894 142.789 175.733 142.49L175.733 142.489L171.833 135.183L174.628 143.128ZM127.902 62.2431H127.902L132.118 69.5655C132.161 69.6393 132.217 69.7041 132.284 69.756C132.352 69.808 132.429 69.8462 132.511 69.8684C132.593 69.8906 132.678 69.8964 132.763 69.8855C132.847 69.8745 132.929 69.8471 133.002 69.8046L133.003 69.8043C133.152 69.7182 133.26 69.5766 133.305 69.4105C133.349 69.2444 133.326 69.0675 133.24 68.9187L129.024 61.596C128.982 61.5221 128.925 61.4571 128.858 61.4051C128.79 61.3532 128.713 61.3151 128.631 61.293C128.549 61.2709 128.463 61.2653 128.379 61.2764C128.294 61.2875 128.213 61.3152 128.139 61.3578C127.99 61.4438 127.882 61.5854 127.837 61.7514C127.793 61.9174 127.816 62.0942 127.902 62.2431ZM186.117 120.418C186.042 120.376 185.96 120.35 185.874 120.341C185.789 120.332 185.703 120.34 185.62 120.364C185.538 120.388 185.461 120.429 185.395 120.483C185.328 120.537 185.273 120.604 185.233 120.68C185.151 120.832 185.132 121.011 185.181 121.176C185.23 121.342 185.342 121.482 185.493 121.566L192.464 125.42L192.465 125.421C192.564 125.477 192.671 125.503 192.778 125.503C193.011 125.503 193.233 125.377 193.35 125.161L193.351 125.159C193.433 125.007 193.451 124.829 193.403 124.664C193.354 124.498 193.242 124.358 193.092 124.274L193.091 124.274L186.117 120.418ZM111.155 79.3117C111.081 79.2709 110.999 79.2453 110.914 79.2363C110.83 79.2272 110.744 79.235 110.662 79.2592C110.581 79.2833 110.505 79.3233 110.439 79.3769C110.373 79.4305 110.318 79.4966 110.277 79.5715C110.196 79.7224 110.177 79.8993 110.226 80.0639C110.274 80.2284 110.385 80.3672 110.535 80.4501L118.207 84.6635C118.282 84.7046 118.364 84.7305 118.449 84.7397C118.533 84.7489 118.619 84.7412 118.701 84.7171C118.783 84.693 118.859 84.6529 118.925 84.5992C118.991 84.5454 119.046 84.4791 119.086 84.4041C119.168 84.2532 119.187 84.0763 119.138 83.9118C119.09 83.7473 118.979 83.6086 118.828 83.5259L111.155 79.3117ZM192.652 78.5234C192.61 78.449 192.553 78.3838 192.486 78.3315C192.418 78.2792 192.341 78.2408 192.258 78.2186C192.176 78.1964 192.09 78.1908 192.005 78.2021C191.92 78.2134 191.839 78.2414 191.765 78.2846L185.132 82.1484C184.984 82.2351 184.876 82.3769 184.831 82.5429C184.787 82.709 184.81 82.8859 184.895 83.0351C184.937 83.1094 184.994 83.1746 185.061 83.227C185.129 83.2793 185.206 83.3178 185.288 83.3401C185.371 83.3624 185.457 83.3681 185.542 83.3569C185.626 83.3457 185.708 83.3178 185.782 83.2749L185.782 83.2745L192.415 79.4104L192.245 79.1185L192.415 79.4104C192.564 79.3236 192.672 79.1817 192.716 79.0156C192.761 78.8495 192.738 78.6726 192.652 78.5234ZM118.55 120.764H118.55L110.872 125.014H110.872C110.564 125.184 110.447 125.574 110.634 125.884C110.692 125.979 110.773 126.057 110.87 126.112C110.967 126.166 111.077 126.194 111.188 126.194C111.296 126.194 111.403 126.167 111.501 126.114L111.505 126.113L119.182 121.863C119.49 121.693 119.608 121.303 119.42 120.993C119.238 120.691 118.85 120.598 118.55 120.764ZM128.583 143.187L128.582 143.188C128.419 143.498 128.526 143.895 128.838 144.072C128.936 144.128 129.044 144.156 129.152 144.156C129.387 144.156 129.607 144.025 129.722 143.809L129.723 143.808L133.941 135.812L133.941 135.812C134.105 135.501 133.998 135.104 133.685 134.927C133.609 134.885 133.527 134.858 133.441 134.849C133.356 134.839 133.269 134.847 133.187 134.872C133.104 134.896 133.028 134.938 132.961 134.992C132.895 135.047 132.841 135.115 132.801 135.191V135.192L128.583 143.187ZM169.692 67.8878V67.8881C169.65 67.9634 169.624 68.0463 169.615 68.1318C169.605 68.2174 169.613 68.3039 169.637 68.3865C169.662 68.469 169.702 68.5458 169.757 68.6125C169.811 68.6792 169.878 68.7345 169.954 68.7751C170.106 68.8573 170.285 68.8762 170.451 68.8279C170.617 68.7795 170.758 68.6678 170.842 68.5167L170.843 68.5157L174.695 61.5463L174.696 61.546C174.737 61.4705 174.764 61.3875 174.773 61.3019C174.782 61.2162 174.774 61.1295 174.75 61.047C174.725 60.9644 174.684 60.8875 174.63 60.8207C174.575 60.754 174.508 60.6988 174.432 60.6583C174.28 60.5766 174.101 60.558 173.935 60.6067C173.769 60.6553 173.629 60.7673 173.544 60.9184L169.692 67.8878Z" fill="#E1E4E5"/>
<path d="M174.628 143.128L174.627 143.127L170.727 135.82V135.82C170.566 135.521 170.652 135.126 170.954 134.939C171.272 134.74 171.666 134.87 171.833 135.183L174.628 143.128ZM174.628 143.128C174.739 143.334 174.948 143.465 175.18 143.465C175.293 143.465 175.404 143.433 175.503 143.373L175.506 143.371C175.808 143.183 175.894 142.789 175.733 142.49L175.733 142.489L171.833 135.183L174.628 143.128ZM192.652 78.5234C192.61 78.449 192.553 78.3838 192.486 78.3315C192.418 78.2792 192.341 78.2408 192.258 78.2186C192.176 78.1964 192.09 78.1908 192.005 78.2021C191.92 78.2134 191.839 78.2414 191.765 78.2846L185.132 82.1484C184.984 82.2351 184.876 82.3769 184.831 82.5429C184.787 82.709 184.81 82.8859 184.895 83.0351C184.937 83.1094 184.994 83.1746 185.061 83.227C185.129 83.2793 185.206 83.3178 185.288 83.3401C185.371 83.3624 185.457 83.3681 185.542 83.3569C185.626 83.3457 185.708 83.3178 185.782 83.2749L185.782 83.2745L192.415 79.4104L192.245 79.1185L192.415 79.4104C192.564 79.3236 192.672 79.1817 192.716 79.0156C192.761 78.8495 192.738 78.6726 192.652 78.5234ZM192.652 78.5234L192.359 78.6909M105.028 103.361H114.19C114.39 103.361 114.52 103.231 114.585 103.144C114.654 103.051 114.702 102.937 114.737 102.827C114.806 102.603 114.845 102.314 114.845 102.009C114.845 101.705 114.806 101.416 114.737 101.192C114.702 101.082 114.654 100.968 114.585 100.874C114.52 100.787 114.39 100.658 114.19 100.658H105.028C104.828 100.658 104.698 100.787 104.633 100.874C104.564 100.968 104.516 101.082 104.482 101.192C104.412 101.416 104.374 101.705 104.374 102.009C104.374 102.314 104.412 102.603 104.482 102.827C104.516 102.937 104.564 103.051 104.633 103.144C104.698 103.231 104.828 103.361 105.028 103.361ZM190.484 103.361H198.298C198.5 103.361 198.629 103.23 198.693 103.144C198.762 103.05 198.81 102.937 198.844 102.826C198.913 102.603 198.951 102.314 198.951 102.009C198.951 101.705 198.913 101.416 198.844 101.192C198.81 101.082 198.762 100.969 198.693 100.875C198.629 100.788 198.5 100.658 198.298 100.658H190.484C190.283 100.658 190.154 100.788 190.089 100.875C190.02 100.969 189.973 101.082 189.939 101.192C189.869 101.416 189.831 101.705 189.831 102.009C189.831 102.314 189.869 102.603 189.939 102.826C189.973 102.937 190.02 103.05 190.089 103.144C190.154 103.23 190.283 103.361 190.484 103.361ZM127.902 62.2431H127.902L132.118 69.5655C132.161 69.6393 132.217 69.7041 132.284 69.756C132.352 69.808 132.429 69.8462 132.511 69.8684C132.593 69.8906 132.678 69.8964 132.763 69.8855C132.847 69.8745 132.929 69.8471 133.002 69.8046L133.003 69.8043C133.152 69.7182 133.26 69.5766 133.305 69.4105C133.349 69.2444 133.326 69.0675 133.24 68.9187L129.024 61.596C128.982 61.5221 128.925 61.4571 128.858 61.4051C128.79 61.3532 128.713 61.3151 128.631 61.293C128.549 61.2709 128.463 61.2653 128.379 61.2764C128.294 61.2875 128.213 61.3152 128.139 61.3578C127.99 61.4438 127.882 61.5854 127.837 61.7514C127.793 61.9174 127.816 62.0942 127.902 62.2431ZM186.117 120.418C186.042 120.376 185.96 120.35 185.874 120.341C185.789 120.332 185.703 120.34 185.62 120.364C185.538 120.388 185.461 120.429 185.395 120.483C185.328 120.537 185.273 120.604 185.233 120.68C185.151 120.832 185.132 121.011 185.181 121.176C185.23 121.342 185.342 121.482 185.493 121.566L192.464 125.42L192.465 125.421C192.564 125.477 192.671 125.503 192.778 125.503C193.011 125.503 193.233 125.377 193.35 125.161L193.351 125.159C193.433 125.007 193.451 124.829 193.403 124.664C193.354 124.498 193.242 124.358 193.092 124.274L193.091 124.274L186.117 120.418ZM111.155 79.3117C111.081 79.2709 110.999 79.2453 110.914 79.2363C110.83 79.2272 110.744 79.235 110.662 79.2592C110.581 79.2833 110.505 79.3233 110.439 79.3769C110.373 79.4305 110.318 79.4966 110.277 79.5715C110.196 79.7224 110.177 79.8993 110.226 80.0639C110.274 80.2284 110.385 80.3672 110.535 80.45L118.207 84.6635C118.282 84.7046 118.364 84.7305 118.449 84.7397C118.533 84.7489 118.619 84.7412 118.701 84.7171C118.783 84.693 118.859 84.6529 118.925 84.5992C118.991 84.5454 119.046 84.4791 119.086 84.4041C119.168 84.2532 119.187 84.0763 119.138 83.9118C119.09 83.7473 118.979 83.6086 118.828 83.5259L111.155 79.3117ZM118.55 120.764H118.55L110.872 125.014H110.872C110.564 125.184 110.447 125.574 110.634 125.884C110.692 125.979 110.773 126.057 110.87 126.112C110.967 126.166 111.077 126.194 111.188 126.194C111.296 126.194 111.403 126.167 111.501 126.114L111.505 126.113L119.182 121.863C119.49 121.693 119.608 121.303 119.42 120.993C119.238 120.691 118.85 120.598 118.55 120.764ZM128.583 143.187L128.582 143.188C128.419 143.498 128.526 143.895 128.838 144.072C128.936 144.128 129.044 144.156 129.152 144.156C129.387 144.156 129.607 144.025 129.722 143.809L129.723 143.808L133.941 135.812L133.941 135.812C134.105 135.501 133.998 135.104 133.685 134.927C133.609 134.885 133.527 134.858 133.441 134.849C133.356 134.839 133.269 134.847 133.187 134.872C133.104 134.896 133.028 134.937 132.961 134.992C132.895 135.047 132.841 135.115 132.801 135.191V135.192L128.583 143.187ZM169.692 67.8878V67.8881C169.65 67.9634 169.624 68.0463 169.615 68.1318C169.605 68.2174 169.613 68.3039 169.637 68.3865C169.662 68.469 169.702 68.5458 169.757 68.6125C169.811 68.6792 169.878 68.7345 169.954 68.7751C170.106 68.8573 170.285 68.8762 170.451 68.8279C170.617 68.7795 170.758 68.6678 170.842 68.5167L170.843 68.5157L174.695 61.5463L174.696 61.546C174.737 61.4705 174.764 61.3875 174.773 61.3019C174.782 61.2162 174.774 61.1295 174.75 61.047C174.725 60.9644 174.684 60.8875 174.63 60.8207C174.575 60.754 174.508 60.6988 174.432 60.6583C174.28 60.5766 174.101 60.558 173.935 60.6067C173.769 60.6553 173.629 60.7673 173.544 60.9184L169.692 67.8878Z" stroke="#E1E4E5" stroke-width="2"/>
<path d="M184.258 100.32H152.507C151.481 100.32 150.649 101.152 150.649 102.178C150.649 103.204 151.481 104.036 152.507 104.036H184.258C185.284 104.036 186.116 103.204 186.116 102.178C186.116 101.152 185.284 100.32 184.258 100.32Z" fill="#22B573"/>
<path d="M145.066 120.368L153.473 105.807C154.186 104.571 153.763 102.991 152.527 102.278C151.291 101.564 149.711 101.988 148.998 103.223L140.591 117.784C139.878 119.02 140.301 120.6 141.537 121.313C142.772 122.026 144.352 121.603 145.066 120.368Z" fill="#22B573"/>
<path d="M156.82 107.211C159.492 104.539 159.492 100.206 156.82 97.5337C154.147 94.8612 149.815 94.8612 147.143 97.5337C144.47 100.206 144.47 104.539 147.143 107.211C149.815 109.883 154.147 109.883 156.82 107.211Z" fill="white"/>
<path d="M155.368 105.76C157.239 103.889 157.239 100.856 155.368 98.985C153.498 97.1144 150.464 97.1144 148.594 98.985C146.723 100.856 146.723 103.889 148.594 105.76C150.464 107.63 153.498 107.63 155.368 105.76Z" fill="#343A40"/>
<path d="M66.5606 83.9659C71.1402 85.0505 75.9839 81.1667 75.9839 81.1667C75.9839 81.1667 73.3992 75.5258 68.818 74.4443C64.2384 73.3597 59.396 77.24 59.396 77.24C59.396 77.24 61.981 82.8809 66.5606 83.9659Z" fill="url(#paint3_linear_8910_63030)"/>
<path d="M190.609 36.2007C185.787 39.5214 178.421 37.2002 178.421 37.2002C178.421 37.2002 178.878 29.4955 183.702 26.1775C188.524 22.8565 195.886 25.1747 195.886 25.1747C195.886 25.1747 195.43 32.8794 190.609 36.2007Z" fill="url(#paint4_linear_8910_63030)"/>
<path d="M108.454 55.2528C103.227 60.5728 93.4526 59.451 93.4526 59.451C93.4526 59.451 92.1593 49.7041 97.3911 44.3875C102.618 39.0675 112.387 40.1859 112.387 40.1859C112.387 40.1859 113.681 49.9331 108.454 55.2528Z" fill="url(#paint5_linear_8910_63030)"/>
<path d="M85.9645 123.964C88.1098 123.964 89.849 125.628 89.849 127.68C89.849 129.732 88.1098 131.396 85.9645 131.396C83.8192 131.396 82.0801 129.732 82.0801 127.68C82.0801 125.628 83.8192 123.964 85.9645 123.964Z" fill="#22B573"/>
<path d="M125.315 166.525C127.741 166.525 129.707 168.566 129.707 171.085C129.707 173.603 127.741 175.645 125.315 175.645C122.89 175.645 120.924 173.603 120.924 171.085C120.924 168.566 122.89 166.525 125.315 166.525Z" fill="#22B573"/>
<path d="M218.373 141.191C221.265 141.191 223.609 143.459 223.609 146.258C223.609 149.056 221.265 151.324 218.373 151.324C215.482 151.324 213.138 149.056 213.138 146.258C213.138 143.459 215.482 141.191 218.373 141.191Z" fill="#22B573"/>
<path d="M225.467 86.1335C226.493 86.1335 227.324 85.3018 227.324 84.2757C227.324 83.2497 226.493 82.418 225.467 82.418C224.441 82.418 223.609 83.2497 223.609 84.2757C223.609 85.3018 224.441 86.1335 225.467 86.1335Z" fill="#22B573"/>
<path d="M91.0315 65.5289C92.9903 65.5289 94.5782 63.941 94.5782 61.9822C94.5782 60.0234 92.9903 58.4355 91.0315 58.4355C89.0728 58.4355 87.4849 60.0234 87.4849 61.9822C87.4849 63.941 89.0728 65.5289 91.0315 65.5289Z" fill="#22B573"/>
<path d="M90.3557 163.484C92.3145 163.484 93.9024 161.972 93.9024 160.106C93.9024 158.241 92.3145 156.729 90.3557 156.729C88.397 156.729 86.8091 158.241 86.8091 160.106C86.8091 161.972 88.397 163.484 90.3557 163.484Z" fill="#E1E4E5"/>
<path d="M239.822 119.236C241.874 119.236 243.538 117.724 243.538 115.858C243.538 113.993 241.874 112.48 239.822 112.48C237.77 112.48 236.106 113.993 236.106 115.858C236.106 117.724 237.77 119.236 239.822 119.236Z" fill="#E1E4E5"/>
<path d="M202.16 164.497C202.813 164.497 203.342 163.968 203.342 163.315C203.342 162.662 202.813 162.133 202.16 162.133C201.507 162.133 200.978 162.662 200.978 163.315C200.978 163.968 201.507 164.497 202.16 164.497Z" fill="#E1E4E5"/>
<path d="M111.805 45.5995C112.737 45.5995 113.494 44.8433 113.494 43.9106C113.494 42.9778 112.737 42.2217 111.805 42.2217C110.872 42.2217 110.116 42.9778 110.116 43.9106C110.116 44.8433 110.872 45.5995 111.805 45.5995Z" fill="#E1E4E5"/>
<path d="M218.043 102.925C217.807 103.806 218.329 104.711 219.21 104.947C220.09 105.183 220.995 104.66 221.231 103.78C221.467 102.899 220.944 101.994 220.064 101.758C219.184 101.522 218.279 102.045 218.043 102.925Z" fill="#E1E4E5"/>
<path d="M217.698 68.231C218.91 68.231 219.893 67.248 219.893 66.0354C219.893 64.8228 218.91 63.8398 217.698 63.8398C216.485 63.8398 215.502 64.8228 215.502 66.0354C215.502 67.248 216.485 68.231 217.698 68.231Z" fill="#E1E4E5"/>
<path d="M83.4311 106.4C84.3638 106.4 85.12 105.796 85.12 105.049C85.12 104.303 84.3638 103.698 83.4311 103.698C82.4983 103.698 81.7422 104.303 81.7422 105.049C81.7422 105.796 82.4983 106.4 83.4311 106.4Z" fill="#E1E4E5"/>
<path d="M151.149 31.075C150.658 32.9073 151.745 34.7908 153.578 35.2818C155.41 35.7728 157.293 34.6854 157.784 32.853C158.275 31.0206 157.188 29.1371 155.356 28.6461C153.523 28.1552 151.64 29.2426 151.149 31.075Z" fill="#E1E4E5"/>
<path d="M59.1339 104.373H59.0897C58.8282 108.08 56.0713 108.137 56.0713 108.137C56.0713 108.137 59.1113 108.196 59.1113 112.48C59.1113 108.196 62.1513 108.137 62.1513 108.137C62.1513 108.137 59.3957 108.08 59.1339 104.373ZM204.226 45.9375H204.15C203.699 52.4245 198.951 52.5245 198.951 52.5245C198.951 52.5245 204.187 52.6285 204.187 60.1242C204.187 52.6285 209.422 52.5245 209.422 52.5245C209.422 52.5245 204.677 52.4245 204.226 45.9375Z" fill="#E1E4E5"/>
<defs>
<linearGradient id="paint0_linear_8910_63030" x1="118.277" y1="257.641" x2="202.426" y2="-122.013" gradientUnits="userSpaceOnUse">
<stop stop-color="white"/>
<stop offset="1" stop-color="#EEEEEE"/>
</linearGradient>
<linearGradient id="paint1_linear_8910_63030" x1="106.318" y1="119.605" x2="145.32" y2="-55.6525" gradientUnits="userSpaceOnUse">
<stop stop-color="white"/>
<stop offset="1" stop-color="#EEEEEE"/>
</linearGradient>
<linearGradient id="paint2_linear_8910_63030" x1="199.598" y1="211.318" x2="233.043" y2="56.6496" gradientUnits="userSpaceOnUse">
<stop stop-color="white"/>
<stop offset="1" stop-color="#EEEEEE"/>
</linearGradient>
<linearGradient id="paint3_linear_8910_63030" x1="83.8065" y1="86.6634" x2="43.716" y2="67.7232" gradientUnits="userSpaceOnUse">
<stop stop-color="white"/>
<stop offset="1" stop-color="#EEEEEE"/>
</linearGradient>
<linearGradient id="paint4_linear_8910_63030" x1="171.827" y1="47.0971" x2="209.78" y2="7.07685" gradientUnits="userSpaceOnUse">
<stop stop-color="white"/>
<stop offset="1" stop-color="#EEEEEE"/>
</linearGradient>
<linearGradient id="paint5_linear_8910_63030" x1="87.5993" y1="73.4246" x2="125.387" y2="14.1895" gradientUnits="userSpaceOnUse">
<stop stop-color="white"/>
<stop offset="1" stop-color="#EEEEEE"/>
</linearGradient>
</defs>
</svg>
