<svg width="17" height="17" viewBox="0 0 17 17" fill="none" xmlns="http://www.w3.org/2000/svg">
<path d="M11.166 11.3906C11.5162 11.3906 11.863 11.3241 12.1865 11.1948C12.51 11.0655 12.804 10.876 13.0516 10.6371C13.2993 10.3982 13.4957 10.1146 13.6297 9.80248C13.7637 9.49035 13.8327 9.15582 13.8327 8.81797C13.8327 8.48013 13.7637 8.14559 13.6297 7.83347C13.4957 7.52134 13.2993 7.23773 13.0516 6.99884C12.804 6.75995 12.51 6.57045 12.1865 6.44116C11.863 6.31188 11.5162 6.24533 11.166 6.24533C10.7004 6.24523 10.2429 6.36354 9.83979 6.58835H9.76513C10.1358 6.37685 10.443 6.07582 10.6564 5.71493C10.8699 5.35404 10.9821 4.94573 10.9822 4.53024C10.9822 4.21566 10.918 3.90416 10.7932 3.61353C10.6684 3.3229 10.4855 3.05882 10.2549 2.83638C10.0244 2.61394 9.75064 2.43749 9.44938 2.31711C9.14813 2.19673 8.82525 2.13477 8.49917 2.13477C8.1731 2.13477 7.85021 2.19673 7.54896 2.31711C7.24771 2.43749 6.97398 2.61394 6.74341 2.83638C6.51284 3.05882 6.32994 3.3229 6.20516 3.61353C6.08037 3.90416 6.01615 4.21566 6.01615 4.53024C6.01622 4.94573 6.12849 5.35404 6.3419 5.71493C6.55532 6.07582 6.86251 6.37685 7.23322 6.58835H7.15926C6.76815 6.37122 6.31624 6.24533 5.83268 6.24533C5.12544 6.24533 4.44716 6.51638 3.94706 6.99884C3.44697 7.48131 3.16602 8.13567 3.16602 8.81797C3.16602 9.50028 3.44697 10.1546 3.94706 10.6371C4.44716 11.1196 5.12544 11.3906 5.83268 11.3906C6.19668 11.3907 6.5568 11.3186 6.89074 11.1789C7.22468 11.0392 7.52532 10.8348 7.77402 10.5783C7.62788 11.9919 6.08335 13.1057 4.58824 13.1057H4.76602C4.62457 13.1057 4.48891 13.1599 4.38889 13.2564C4.28887 13.3529 4.23268 13.4838 4.23268 13.6202C4.23268 13.7567 4.28887 13.8876 4.38889 13.9841C4.48891 14.0806 4.62457 14.1348 4.76602 14.1348H12.2327C12.3741 14.1348 12.5098 14.0806 12.6098 13.9841C12.7098 13.8876 12.766 13.7567 12.766 13.6202C12.766 13.4838 12.7098 13.3529 12.6098 13.2564C12.5098 13.1599 12.3741 13.1057 12.2327 13.1057H12.4105C10.9153 13.1057 9.37082 11.9916 9.22504 10.578C9.47359 10.8345 9.77413 11.039 10.108 11.1788C10.4419 11.3186 10.802 11.3907 11.166 11.3906Z" fill="#343A40"/>
</svg>
