<svg width="15" height="15" viewBox="0 0 15 15" fill="none" xmlns="http://www.w3.org/2000/svg">
<path d="M3.85091 14.2602C3.33912 14.2602 2.9041 14.0811 2.54584 13.7228C2.18759 13.3645 2.00846 12.9295 2.00846 12.4178C2.00846 11.906 2.18759 11.4709 2.54584 11.1127C2.9041 10.7544 3.33912 10.5753 3.85091 10.5753C3.99421 10.5753 4.12728 10.5907 4.25011 10.6214C4.37294 10.6521 4.49065 10.693 4.60325 10.7442L5.47841 9.65409C5.19181 9.33675 4.99221 8.97851 4.87961 8.5793C4.76702 8.18009 4.74143 7.78092 4.80284 7.38171L3.55919 6.96716C3.38518 7.22306 3.16511 7.42777 2.89898 7.58134C2.63285 7.73486 2.33601 7.81165 2.00846 7.81165C1.49667 7.81165 1.06165 7.63249 0.703396 7.27425C0.345143 6.91597 0.166016 6.48096 0.166016 5.9692C0.166016 5.4574 0.345143 5.02238 0.703396 4.6641C1.06165 4.30587 1.49667 4.12675 2.00846 4.12675C2.52026 4.12675 2.95528 4.30587 3.31353 4.6641C3.67179 5.02238 3.85091 5.4574 3.85091 5.9692V6.09204L5.09456 6.52189C5.29928 6.1534 5.57309 5.84123 5.91599 5.58533C6.25889 5.32943 6.64529 5.16569 7.0752 5.09403V3.75822C6.676 3.64563 6.34589 3.42814 6.08488 3.10567C5.82387 2.78328 5.69336 2.40715 5.69336 1.97721C5.69336 1.46541 5.87249 1.0304 6.23074 0.67216C6.58899 0.313883 7.02402 0.134766 7.53581 0.134766C8.0476 0.134766 8.48262 0.313883 8.84088 0.67216C9.19913 1.0304 9.37826 1.46541 9.37826 1.97721C9.37826 2.40715 9.24519 2.78328 8.97906 3.10567C8.71293 3.42814 8.38538 3.64563 7.99642 3.75822V5.09403C8.42632 5.16569 8.81273 5.32943 9.15563 5.58533C9.49853 5.84123 9.77234 6.1534 9.97705 6.52189L11.2207 6.09204V5.9692C11.2207 5.4574 11.3998 5.02238 11.7581 4.6641C12.1163 4.30587 12.5514 4.12675 13.0632 4.12675C13.5749 4.12675 14.01 4.30587 14.3682 4.6641C14.7265 5.02238 14.9056 5.4574 14.9056 5.9692C14.9056 6.48096 14.7265 6.91597 14.3682 7.27425C14.01 7.63249 13.5749 7.81165 13.0632 7.81165C12.7356 7.81165 12.4362 7.73486 12.165 7.58134C11.8937 7.42777 11.6762 7.22306 11.5124 6.96716L10.2688 7.38171C10.3302 7.78092 10.3046 8.17753 10.192 8.57161C10.0794 8.96574 9.87981 9.3265 9.59321 9.65409L10.4684 10.7288C10.581 10.6777 10.6987 10.6393 10.8215 10.6137C10.9443 10.5881 11.0774 10.5753 11.2207 10.5753C11.7325 10.5753 12.1675 10.7544 12.5258 11.1127C12.884 11.4709 13.0632 11.906 13.0632 12.4178C13.0632 12.9295 12.884 13.3645 12.5258 13.7228C12.1675 14.0811 11.7325 14.2602 11.2207 14.2602C10.7089 14.2602 10.2739 14.0811 9.91564 13.7228C9.55738 13.3645 9.37826 12.9295 9.37826 12.4178C9.37826 12.213 9.41152 12.016 9.47806 11.8266C9.54459 11.6372 9.63415 11.4658 9.74675 11.3123L8.87158 10.2222C8.45191 10.4576 8.0041 10.5753 7.52813 10.5753C7.05217 10.5753 6.60435 10.4576 6.18468 10.2222L5.32487 11.3123C5.43746 11.4658 5.52703 11.6372 5.59356 11.8266C5.66009 12.016 5.69336 12.213 5.69336 12.4178C5.69336 12.9295 5.51423 13.3645 5.15598 13.7228C4.79773 14.0811 4.3627 14.2602 3.85091 14.2602Z" fill="#343A40"/>
</svg>
